<svg width="378" height="91" viewBox="0 0 378 91" fill="none" xmlns="http://www.w3.org/2000/svg">
<path d="M130.623 64.9405V33.8981C130.623 32.5384 131.355 31.7779 132.637 31.7779H134.947C136.251 31.7779 136.96 32.5154 136.96 33.8981V64.9405C136.96 66.3002 136.228 67.0607 134.947 67.0607H132.637C131.333 67.0607 130.623 66.3233 130.623 64.9405Z" fill="white"/>
<path d="M170.315 43.3237C170.315 49.4769 166.426 54.4778 159.654 54.4778H151.693V64.9636C151.693 66.3233 150.961 67.0838 149.68 67.0838H147.369C146.065 67.0838 145.356 66.3463 145.356 64.9636V33.8981C145.356 32.5384 146.088 31.7779 147.369 31.7779H159.654C166.472 31.7779 170.315 37.1245 170.315 43.3237ZM163.841 43.2316C163.841 39.7978 161.828 37.3319 158.602 37.3319H151.693V49.1082H158.602C161.873 49.1082 163.841 46.6423 163.841 43.2546V43.2316Z" fill="white"/>
<path d="M198.156 33.8981V35.2117C198.156 36.5714 197.379 37.378 196.098 37.378H182.28V47.0571H194.084C195.388 47.0571 196.143 47.7946 196.143 49.1773V50.1913C196.143 51.551 195.365 52.3576 194.084 52.3576H182.28V64.9636C182.28 66.3233 181.548 67.0838 180.267 67.0838H177.956C176.652 67.0838 175.943 66.3463 175.943 64.9636V33.8981C175.943 32.5384 176.675 31.7779 177.956 31.7779H196.098C197.402 31.7779 198.156 32.5154 198.156 33.8981Z" fill="white"/>
<path d="M201.268 60.2161C200.742 58.9025 201.428 57.9346 202.709 57.6581L204.402 57.1972C205.637 56.8976 206.255 57.4046 206.941 58.626C208.062 60.631 210.419 62.1059 213.461 62.1059C217.282 62.1059 219.638 60.2392 219.638 57.5659C219.638 55.3535 217.945 53.8556 215.314 52.8415L210.647 51.1362C205.477 49.3617 202.229 45.7896 202.229 41.457C202.229 35.1425 207.399 31.2708 213.621 31.2708C218.86 31.2708 222.612 33.8289 224.282 37.8158C224.854 39.0833 224.282 40.1434 222.978 40.4891L221.445 40.95C220.256 41.3418 219.478 40.8348 218.86 39.6825C217.899 37.7467 216.115 36.8709 213.69 36.8709C210.945 36.8709 208.543 38.3919 208.543 41.0883C208.543 42.448 209.069 44.1073 212.432 45.4209L217.144 47.2415C223.253 49.2925 225.792 53.1411 225.838 57.2202C225.838 63.8343 220.668 67.6368 213.553 67.6368C207.399 67.6368 203.052 64.6639 201.268 60.2392V60.2161Z" fill="white"/>
<path d="M241.783 49.4078C241.783 39.5903 248.692 31.2248 260.085 31.2248C264.363 31.2248 267.497 32.4231 270.174 34.2898C271.226 35.0964 271.363 36.1104 270.677 37.2627L269.899 38.415C269.167 39.5673 268.275 39.6825 267.085 38.9681C265.072 37.7697 262.533 37.0553 260.13 37.0553C252.673 37.0553 248.28 42.7015 248.28 49.4078C248.28 56.114 252.695 61.7602 260.13 61.7602C262.533 61.7602 265.072 61.0688 267.085 59.8474C268.275 59.1561 269.213 59.2252 269.899 60.4005L270.677 61.5528C271.409 62.7051 271.34 63.6039 270.448 64.3413C267.703 66.3232 264.546 67.6138 260.13 67.6138C248.738 67.6138 241.829 59.2482 241.829 49.4308H241.806L241.783 49.4078Z" fill="white"/>
<path d="M274.085 54.2473C274.085 46.7806 278.935 40.9039 285.982 40.9039C289.184 40.9039 292.158 42.1714 294.24 45.2826V43.6233C294.24 42.2636 294.972 41.457 296.253 41.457H298.381C299.685 41.457 300.44 42.2636 300.44 43.6233V64.9405C300.44 66.3002 299.662 67.0607 298.381 67.0607H296.253C294.949 67.0607 294.24 66.3232 294.24 64.9405V63.2351C292.158 66.3693 289.184 67.6138 285.982 67.6138C278.913 67.6138 274.085 61.7372 274.085 54.2704V54.2473ZM294.355 54.2243C294.309 49.6613 291.472 46.2505 287.217 46.2505C282.962 46.2505 280.308 49.8917 280.308 54.2243C280.308 58.5569 282.847 62.1981 287.217 62.1981C291.586 62.1981 294.332 58.8334 294.355 54.2243Z" fill="white"/>
<path d="M307.028 64.9406V43.6234C307.028 42.2637 307.761 41.4571 309.042 41.4571H311.169C312.473 41.4571 313.251 42.2637 313.251 43.6234V45.9971C314.212 42.7246 317.071 40.9271 320.366 40.9271C322.951 40.9271 326.039 41.9872 327.709 45.8127C329.906 41.6645 332.948 40.9271 335.785 40.9271C341.847 40.9271 344.913 45.4901 344.913 52.496V64.9636C344.913 66.3233 344.181 67.0838 342.9 67.0838H340.772C339.468 67.0838 338.713 66.3464 338.713 64.9636V52.6573C338.713 48.3247 336.975 46.3428 334.572 46.3428C332.422 46.3428 329.242 48.0021 329.082 54.04V64.9175C329.082 66.2772 328.304 67.0377 327.023 67.0377H324.895C323.591 67.0377 322.882 66.3003 322.882 64.9175V52.6112C322.882 48.2786 321.098 46.2967 318.719 46.2967C316.339 46.2967 313.228 48.1634 313.228 54.4087V64.8945C313.228 66.2542 312.45 67.0147 311.169 67.0147H309.042C307.738 67.0147 307.028 66.2772 307.028 64.8945H307.051L307.028 64.9406Z" fill="white"/>
<path d="M351.135 76.2329V43.6464C351.135 42.2868 351.868 41.4802 353.149 41.4802H355.276C356.58 41.4802 357.358 42.2868 357.358 43.6464V45.3057C359.371 42.1715 362.345 40.9271 365.617 40.9271C372.686 40.9271 377.467 46.8267 377.467 54.2705C377.467 61.7142 372.663 67.6139 365.617 67.6139C362.345 67.6139 359.371 66.3464 357.358 63.2352V76.2329C357.358 77.5926 356.58 78.3531 355.276 78.3531H353.149C351.845 78.3531 351.135 77.6157 351.135 76.2329ZM371.244 54.2705C371.244 49.9379 368.751 46.2967 364.381 46.2967C360.012 46.2967 357.244 49.6614 357.198 54.2705C357.244 58.8335 360.126 62.2443 364.381 62.2443C368.636 62.2443 371.244 58.6722 371.244 54.2705Z" fill="white"/>
<path d="M114.159 45.7665L106.586 25.3481C106.518 25.1637 106.426 25.0024 106.289 24.8641L103.155 21.7069L93.7065 12.2581L91.6246 10.2071C91.6246 10.2071 91.373 9.99968 91.2357 9.95358L75.1989 2.90163C75.1989 2.90163 75.0845 2.85553 75.0159 2.83249L68.0613 0.896657C67.9697 0.873611 67.8782 0.850566 67.7639 0.850566L50.1028 0.366608C49.9884 0.366608 49.874 0.366608 49.7596 0.412699L42.7821 2.07198C42.7821 2.07198 42.6448 2.11807 42.5762 2.14112C42.5762 2.14112 42.5533 2.14112 42.5304 2.14112L31.0461 5.75928C31.0461 5.75928 30.8174 5.85147 30.7259 5.9206L19.4703 13.2491C19.4703 13.2491 19.3102 13.3643 19.2645 13.4335L10.7771 22.1678C10.7771 22.1678 10.6627 22.306 10.6169 22.3752L4.30284 32.2617C4.18846 32.4461 4.11983 32.6535 4.09695 32.8379L1.3517 43.8076C1.3517 43.8076 1.32882 43.9459 1.32882 44.015L0.253601 54.7773C0.253601 54.7773 0.253601 54.8695 0.253601 54.9156C0.253601 54.9156 0.253601 54.9386 0.253601 54.9617L2.01514 69.6417C2.01514 69.6417 2.01514 69.8031 2.06089 69.8952L5.7441 80.3349C5.83561 80.6806 6.06438 80.9802 6.36178 81.1646C6.77357 81.395 13.8426 85.3588 31.7782 88.6083C37.6805 89.6684 44.9325 90.3137 53.3742 90.3137C64.5611 90.3137 77.8527 89.0231 92.9058 85.3358C93.0888 85.3358 93.2718 85.2897 93.4319 85.1975C97.9845 84.0683 102.674 82.7086 107.524 81.0954C107.936 80.9571 108.279 80.6115 108.371 80.1736L111.688 67.6137L113.93 59.0407C113.93 59.0407 113.976 58.8333 113.976 58.7412L114.204 46.5039C114.25 46.2735 114.25 46.02 114.159 45.7665ZM105.603 66.3693L104.893 58.5568C106.152 57.7732 107.021 56.3675 107.021 54.7773C107.021 53.625 106.586 52.588 105.877 51.8044L108.394 45.4669L111.596 47.0109L111.368 58.5337L109.4 66.0697L105.625 66.3923L105.603 66.3693ZM94.53 76.832L86.4087 75.7719L85.1504 64.8482L92.7914 54.7312L98.2361 55.4917C98.5564 57.4967 100.226 59.0638 102.285 59.2021L103.017 67.3602L94.5072 76.855L94.53 76.832ZM71.9961 82.2707L63.3028 76.2328L69.4339 65.3092L82.634 65.747L83.8464 76.2097L72.019 82.2707H71.9961ZM60.7863 75.334L46.4653 76.4172L39.3048 68.0055C39.7852 67.2911 40.0597 66.4384 40.0597 65.5166C40.0597 64.2721 39.5564 63.1429 38.7328 62.3363L43.7887 52.9106L57.126 53.0489C57.7437 54.7312 59.368 55.9296 61.2439 55.9296C61.4498 55.9296 61.6786 55.9296 61.8844 55.8835L67.1233 63.9956L60.7635 75.311L60.7863 75.334ZM31.5266 64.0186L21.8724 63.4425L16.8852 52.2884L22.3529 41.3648L34.1346 40.0051L41.4781 51.6662L36.3765 61.1609C36.1477 61.1149 35.8961 61.0918 35.6444 61.0918C33.7456 61.0918 32.1214 62.3132 31.5037 64.0416L31.5266 64.0186ZM13.9112 81.395L11.3032 73.4904L16.6565 76.1176L22.6274 84.0222C19.2416 83.1695 16.3133 82.2477 13.9112 81.395ZM16.748 73.2369L10.1136 69.9644L5.7441 58.2572L7.98605 51.3435L14.4603 53.3254L19.6076 64.8482L16.748 73.2369ZM13.8883 34.3819C14.689 35.1424 15.7414 35.6034 16.9081 35.6034C17.0454 35.6034 17.1826 35.6034 17.3428 35.6034L20.0194 40.2125L14.7805 50.6752L8.5351 48.7624L9.26717 37.954L13.8655 34.3819H13.8883ZM24.2288 20.8542L36.468 17.6047L41.9814 25.9242L34.0888 37.3548L22.2156 38.7145L19.7677 34.5202C20.7057 33.7136 21.3234 32.4922 21.3234 31.1556C21.3234 29.8189 20.7286 28.5975 19.7677 27.7678L24.2288 20.8311V20.8542ZM47.7007 9.33135L60.5805 9.56181L66.5514 16.2911L62.7309 21.0846C62.2962 20.9463 61.8387 20.8542 61.3583 20.8542C59.2307 20.8542 57.4692 22.3752 57.0574 24.3801L44.2691 24.6106L38.8244 16.3833L47.7007 9.33135ZM70.4862 7.92557L81.6274 13.2952L81.3757 16.222L68.9306 14.9545L63.7604 9.14699L70.5091 7.92557H70.4862ZM100.958 32.2617L106.266 43.7154L103.589 50.4678C103.269 50.3986 102.949 50.3526 102.629 50.3526C100.867 50.3526 99.3571 51.3896 98.6479 52.8876L93.0659 52.104L87.278 39.5211L91.7848 29.865L100.958 32.2617ZM104.413 54.7773C104.413 55.7683 103.612 56.5749 102.629 56.5749C101.645 56.5749 100.844 55.7683 100.844 54.7773C100.844 53.7864 101.645 52.9798 102.629 52.9798C103.612 52.9798 104.413 53.7864 104.413 54.7773ZM83.183 63.1429L69.4339 62.682L64.3094 54.7543C65.1559 53.9477 65.7049 52.7954 65.7049 51.5279C65.7049 50.3295 65.2474 49.2694 64.4696 48.4628L70.0058 39.5442L84.9674 40.7656L90.6867 53.2102L83.183 63.1429ZM57.0116 50.4447L43.7658 50.3065L36.4223 38.6454L44.292 27.2608L57.3319 27.0304C57.9953 28.6205 59.5739 29.7498 61.3812 29.7498C61.587 29.7498 61.7701 29.7498 61.9531 29.7037L67.7181 38.2536L62.159 47.1953C61.8844 47.1262 61.587 47.1031 61.2896 47.1031C59.2307 47.1031 57.5149 48.5319 57.0345 50.4447H57.0116ZM63.1656 25.302C63.1656 26.2929 62.3649 27.0995 61.3812 27.0995C60.3974 27.0995 59.5967 26.2929 59.5967 25.302C59.5967 24.311 60.3974 23.5044 61.3812 23.5044C62.3649 23.5044 63.1656 24.311 63.1656 25.302ZM61.2896 49.7303C62.2734 49.7303 63.0741 50.5369 63.0741 51.5279C63.0741 52.5188 62.2734 53.3254 61.2896 53.3254C60.3059 53.3254 59.5052 52.5188 59.5052 51.5279C59.5052 50.5369 60.3059 49.7303 61.2896 49.7303ZM85.0361 38.1153L69.9829 36.8939L64.3552 28.5514C65.2245 27.7448 65.7736 26.5925 65.7736 25.302C65.7736 24.288 65.4304 23.3661 64.8813 22.6287L68.862 17.6278L81.879 18.9414L89.4971 28.5284L85.0361 38.1153ZM16.9081 29.358C17.8918 29.358 18.6925 30.1646 18.6925 31.1556C18.6925 32.1465 17.8918 32.9531 16.9081 32.9531C15.9244 32.9531 15.1237 32.1465 15.1237 31.1556C15.1237 30.1646 15.9244 29.358 16.9081 29.358ZM35.6673 63.7421C36.651 63.7421 37.4517 64.5487 37.4517 65.5396C37.4517 66.5306 36.651 67.3372 35.6673 67.3372C34.6836 67.3372 33.8829 66.5306 33.8829 65.5396C33.8829 64.5487 34.6836 63.7421 35.6673 63.7421ZM110.544 43.5771L108.668 42.6784L103.246 30.9712L103.429 25.7629L104.23 26.5695L110.544 43.5771ZM92.1966 14.5166L100.89 23.2048L100.684 29.4502L91.739 27.0995L83.9151 17.259L84.2125 13.9174L92.1966 14.5166ZM74.2152 5.36751L88.2846 11.5668L83.366 11.198L71.5615 5.50578L70.8294 4.42264L74.2152 5.36751ZM50.24 3.01685L67.0089 3.50081L68.4502 5.62101L61.1753 6.93461L47.8379 6.70415L45.4587 4.16913L50.2171 3.0399L50.24 3.01685ZM32.0527 8.22516L42.5762 4.90659L45.3443 7.85643L36.4909 14.8853L24.0686 18.1809L22.0326 14.7932L32.0756 8.24821L32.0527 8.22516ZM12.7216 23.9192L19.9279 16.4985L21.8496 19.6788L17.297 26.7308C17.1598 26.7308 17.0454 26.7308 16.9081 26.7308C14.4831 26.7308 12.4928 28.7127 12.4928 31.1786C12.4928 31.4782 12.5157 31.7778 12.5843 32.0543L8.35209 35.3268L6.93371 33.0223L12.6987 23.9423L12.7216 23.9192ZM5.92712 36.3639L6.65918 37.5853L5.85849 49.4538L3.8453 55.607L2.90734 54.4777L3.89106 44.3607L5.90424 36.3869L5.92712 36.3639ZM4.62312 69.3882L3.0446 58.7642L3.20474 58.9486L7.82591 71.3932L10.7313 80.1966C8.28345 79.2057 8.87826 79.5283 8.12332 79.1365L4.60025 69.3882H4.62312ZM26.608 84.944C26.608 84.944 26.5622 84.8288 26.5165 84.7827L18.9671 74.804L21.9411 66.0927L31.3893 66.6458C31.8926 68.5355 33.6084 69.9413 35.6444 69.9413C36.1935 69.9413 36.7425 69.8261 37.223 69.6417L44.3149 77.9843L40.0826 86.8568C40.0826 86.8568 40.0368 86.972 40.014 87.0181C37.223 86.7416 34.6378 86.3959 32.2815 86.0272C30.2683 85.7045 28.3695 85.3358 26.5622 84.944H26.608ZM42.8278 87.2716L46.7398 79.0443L61.1295 77.9382L70.4862 84.437L70.1659 86.6955C59.734 87.8478 50.5603 87.8478 42.8278 87.2486V87.2716ZM91.8534 82.8469C85.1504 84.4831 78.8135 85.6354 72.8654 86.3959L73.1171 84.6444L85.4707 78.3299L93.1803 79.3439L91.8305 82.8699L91.8534 82.8469ZM105.991 78.7908C102.217 80.0353 98.5564 81.0954 94.9647 82.0403L96.1543 78.9061L105.008 69.0425L108.645 68.743L105.991 78.7908Z" fill="white"/>
</svg>
