<svg width="115" height="91" viewBox="0 0 115 91" fill="none" xmlns="http://www.w3.org/2000/svg">
<path d="M114.159 45.7665L106.586 25.3481C106.518 25.1637 106.426 25.0024 106.289 24.8641L103.155 21.7069L93.7065 12.2581L91.6246 10.2071C91.6246 10.2071 91.373 9.99968 91.2357 9.95358L75.1989 2.90163C75.1989 2.90163 75.0845 2.85553 75.0159 2.83249L68.0613 0.896657C67.9697 0.873611 67.8782 0.850566 67.7639 0.850566L50.1028 0.366608C49.9884 0.366608 49.874 0.366608 49.7596 0.412699L42.7821 2.07198C42.7821 2.07198 42.6448 2.11807 42.5762 2.14112C42.5762 2.14112 42.5533 2.14112 42.5304 2.14112L31.0461 5.75928C31.0461 5.75928 30.8174 5.85147 30.7259 5.9206L19.4703 13.2491C19.4703 13.2491 19.3102 13.3643 19.2645 13.4335L10.7771 22.1678C10.7771 22.1678 10.6627 22.306 10.6169 22.3752L4.30284 32.2617C4.18846 32.4461 4.11983 32.6535 4.09695 32.8379L1.3517 43.8076C1.3517 43.8076 1.32882 43.9459 1.32882 44.015L0.253601 54.7773C0.253601 54.7773 0.253601 54.8695 0.253601 54.9156C0.253601 54.9156 0.253601 54.9386 0.253601 54.9617L2.01514 69.6417C2.01514 69.6417 2.01514 69.8031 2.06089 69.8952L5.7441 80.3349C5.83561 80.6806 6.06438 80.9802 6.36178 81.1646C6.77357 81.395 13.8426 85.3588 31.7782 88.6083C37.6805 89.6684 44.9325 90.3137 53.3742 90.3137C64.5611 90.3137 77.8527 89.0231 92.9058 85.3358C93.0888 85.3358 93.2718 85.2897 93.4319 85.1975C97.9845 84.0683 102.674 82.7086 107.524 81.0954C107.936 80.9571 108.279 80.6115 108.371 80.1736L111.688 67.6137L113.93 59.0407C113.93 59.0407 113.976 58.8333 113.976 58.7412L114.204 46.5039C114.25 46.2735 114.25 46.02 114.159 45.7665ZM105.603 66.3693L104.893 58.5568C106.152 57.7732 107.021 56.3675 107.021 54.7773C107.021 53.625 106.586 52.588 105.877 51.8044L108.394 45.4669L111.596 47.0109L111.368 58.5337L109.4 66.0697L105.625 66.3923L105.603 66.3693ZM94.53 76.832L86.4087 75.7719L85.1504 64.8482L92.7914 54.7312L98.2361 55.4917C98.5564 57.4967 100.226 59.0638 102.285 59.2021L103.017 67.3602L94.5072 76.855L94.53 76.832ZM71.9961 82.2707L63.3028 76.2328L69.4339 65.3092L82.634 65.747L83.8464 76.2097L72.019 82.2707H71.9961ZM60.7863 75.334L46.4653 76.4172L39.3048 68.0055C39.7852 67.2911 40.0597 66.4384 40.0597 65.5166C40.0597 64.2721 39.5564 63.1429 38.7328 62.3363L43.7887 52.9106L57.126 53.0489C57.7437 54.7312 59.368 55.9296 61.2439 55.9296C61.4498 55.9296 61.6786 55.9296 61.8844 55.8835L67.1233 63.9956L60.7635 75.311L60.7863 75.334ZM31.5266 64.0186L21.8724 63.4425L16.8852 52.2884L22.3529 41.3648L34.1346 40.0051L41.4781 51.6662L36.3765 61.1609C36.1477 61.1149 35.8961 61.0918 35.6444 61.0918C33.7456 61.0918 32.1214 62.3132 31.5037 64.0416L31.5266 64.0186ZM13.9112 81.395L11.3032 73.4904L16.6565 76.1176L22.6274 84.0222C19.2416 83.1695 16.3133 82.2477 13.9112 81.395ZM16.748 73.2369L10.1136 69.9644L5.7441 58.2572L7.98605 51.3435L14.4603 53.3254L19.6076 64.8482L16.748 73.2369ZM13.8883 34.3819C14.689 35.1424 15.7414 35.6034 16.9081 35.6034C17.0454 35.6034 17.1826 35.6034 17.3428 35.6034L20.0194 40.2125L14.7805 50.6752L8.5351 48.7624L9.26717 37.954L13.8655 34.3819H13.8883ZM24.2288 20.8542L36.468 17.6047L41.9814 25.9242L34.0888 37.3548L22.2156 38.7145L19.7677 34.5202C20.7057 33.7136 21.3234 32.4922 21.3234 31.1556C21.3234 29.8189 20.7286 28.5975 19.7677 27.7678L24.2288 20.8311V20.8542ZM47.7007 9.33135L60.5805 9.56181L66.5514 16.2911L62.7309 21.0846C62.2962 20.9463 61.8387 20.8542 61.3583 20.8542C59.2307 20.8542 57.4692 22.3752 57.0574 24.3801L44.2691 24.6106L38.8244 16.3833L47.7007 9.33135ZM70.4862 7.92557L81.6274 13.2952L81.3757 16.222L68.9306 14.9545L63.7604 9.14699L70.5091 7.92557H70.4862ZM100.958 32.2617L106.266 43.7154L103.589 50.4678C103.269 50.3986 102.949 50.3526 102.629 50.3526C100.867 50.3526 99.3571 51.3896 98.6479 52.8876L93.0659 52.104L87.278 39.5211L91.7848 29.865L100.958 32.2617ZM104.413 54.7773C104.413 55.7683 103.612 56.5749 102.629 56.5749C101.645 56.5749 100.844 55.7683 100.844 54.7773C100.844 53.7864 101.645 52.9798 102.629 52.9798C103.612 52.9798 104.413 53.7864 104.413 54.7773ZM83.183 63.1429L69.4339 62.682L64.3094 54.7543C65.1559 53.9477 65.7049 52.7954 65.7049 51.5279C65.7049 50.3295 65.2474 49.2694 64.4696 48.4628L70.0058 39.5442L84.9674 40.7656L90.6867 53.2102L83.183 63.1429ZM57.0116 50.4447L43.7658 50.3065L36.4223 38.6454L44.292 27.2608L57.3319 27.0304C57.9953 28.6205 59.5739 29.7498 61.3812 29.7498C61.587 29.7498 61.7701 29.7498 61.9531 29.7037L67.7181 38.2536L62.159 47.1953C61.8844 47.1262 61.587 47.1031 61.2896 47.1031C59.2307 47.1031 57.5149 48.5319 57.0345 50.4447H57.0116ZM63.1656 25.302C63.1656 26.2929 62.3649 27.0995 61.3812 27.0995C60.3974 27.0995 59.5967 26.2929 59.5967 25.302C59.5967 24.311 60.3974 23.5044 61.3812 23.5044C62.3649 23.5044 63.1656 24.311 63.1656 25.302ZM61.2896 49.7303C62.2734 49.7303 63.0741 50.5369 63.0741 51.5279C63.0741 52.5188 62.2734 53.3254 61.2896 53.3254C60.3059 53.3254 59.5052 52.5188 59.5052 51.5279C59.5052 50.5369 60.3059 49.7303 61.2896 49.7303ZM85.0361 38.1153L69.9829 36.8939L64.3552 28.5514C65.2245 27.7448 65.7736 26.5925 65.7736 25.302C65.7736 24.288 65.4304 23.3661 64.8813 22.6287L68.862 17.6278L81.879 18.9414L89.4971 28.5284L85.0361 38.1153ZM16.9081 29.358C17.8918 29.358 18.6925 30.1646 18.6925 31.1556C18.6925 32.1465 17.8918 32.9531 16.9081 32.9531C15.9244 32.9531 15.1237 32.1465 15.1237 31.1556C15.1237 30.1646 15.9244 29.358 16.9081 29.358ZM35.6673 63.7421C36.651 63.7421 37.4517 64.5487 37.4517 65.5396C37.4517 66.5306 36.651 67.3372 35.6673 67.3372C34.6836 67.3372 33.8829 66.5306 33.8829 65.5396C33.8829 64.5487 34.6836 63.7421 35.6673 63.7421ZM110.544 43.5771L108.668 42.6784L103.246 30.9712L103.429 25.7629L104.23 26.5695L110.544 43.5771ZM92.1966 14.5166L100.89 23.2048L100.684 29.4502L91.739 27.0995L83.9151 17.259L84.2125 13.9174L92.1966 14.5166ZM74.2152 5.36751L88.2846 11.5668L83.366 11.198L71.5615 5.50578L70.8294 4.42264L74.2152 5.36751ZM50.24 3.01685L67.0089 3.50081L68.4502 5.62101L61.1753 6.93461L47.8379 6.70415L45.4587 4.16913L50.2171 3.0399L50.24 3.01685ZM32.0527 8.22516L42.5762 4.90659L45.3443 7.85643L36.4909 14.8853L24.0686 18.1809L22.0326 14.7932L32.0756 8.24821L32.0527 8.22516ZM12.7216 23.9192L19.9279 16.4985L21.8496 19.6788L17.297 26.7308C17.1598 26.7308 17.0454 26.7308 16.9081 26.7308C14.4831 26.7308 12.4928 28.7127 12.4928 31.1786C12.4928 31.4782 12.5157 31.7778 12.5843 32.0543L8.35209 35.3268L6.93371 33.0223L12.6987 23.9423L12.7216 23.9192ZM5.92712 36.3639L6.65918 37.5853L5.85849 49.4538L3.8453 55.607L2.90734 54.4777L3.89106 44.3607L5.90424 36.3869L5.92712 36.3639ZM4.62312 69.3882L3.0446 58.7642L3.20474 58.9486L7.82591 71.3932L10.7313 80.1966C8.28345 79.2057 8.87826 79.5283 8.12332 79.1365L4.60025 69.3882H4.62312ZM26.608 84.944C26.608 84.944 26.5622 84.8288 26.5165 84.7827L18.9671 74.804L21.9411 66.0927L31.3893 66.6458C31.8926 68.5355 33.6084 69.9413 35.6444 69.9413C36.1935 69.9413 36.7425 69.8261 37.223 69.6417L44.3149 77.9843L40.0826 86.8568C40.0826 86.8568 40.0368 86.972 40.014 87.0181C37.223 86.7416 34.6378 86.3959 32.2815 86.0272C30.2683 85.7045 28.3695 85.3358 26.5622 84.944H26.608ZM42.8278 87.2716L46.7398 79.0443L61.1295 77.9382L70.4862 84.437L70.1659 86.6955C59.734 87.8478 50.5603 87.8478 42.8278 87.2486V87.2716ZM91.8534 82.8469C85.1504 84.4831 78.8135 85.6354 72.8654 86.3959L73.1171 84.6444L85.4707 78.3299L93.1803 79.3439L91.8305 82.8699L91.8534 82.8469ZM105.991 78.7908C102.217 80.0353 98.5564 81.0954 94.9647 82.0403L96.1543 78.9061L105.008 69.0425L108.645 68.743L105.991 78.7908Z" fill="white"/>
</svg>
