<svg width="996" height="1020" viewBox="0 0 996 1020" fill="none" xmlns="http://www.w3.org/2000/svg">
<path d="M311.548 101.401L193.434 180.608" stroke="#073A53" stroke-width="2" stroke-linecap="round" stroke-linejoin="round"/>
<path d="M142.483 231.041L71.2603 371.157" stroke="#073A53" stroke-width="2" stroke-linecap="round" stroke-linejoin="round"/>
<path d="M51.6797 432.912L53.5938 587.822" stroke="#073A53" stroke-width="2" stroke-linecap="round" stroke-linejoin="round"/>
<path d="M60.1497 655.727L139.064 789.9" stroke="#073A53" stroke-width="2" stroke-linecap="round" stroke-linejoin="round"/>
<path d="M189.746 835.065L305.363 921.293" stroke="#073A53" stroke-width="2" stroke-linecap="round" stroke-linejoin="round"/>
<path d="M374.623 943.853L516.332 955.93" stroke="#073A53" stroke-width="2" stroke-linecap="round" stroke-linejoin="round"/>
<path d="M591.604 953.515L720.062 899.508" stroke="#073A53" stroke-width="2" stroke-linecap="round" stroke-linejoin="round"/>
<path d="M776.436 868.517L881.124 757.269" stroke="#073A53" stroke-width="2" stroke-linecap="round" stroke-linejoin="round"/>
<path d="M943.873 543.386L909.402 690.502" stroke="#073A53" stroke-width="2" stroke-linecap="round" stroke-linejoin="round"/>
<path d="M910.085 332.965L946.332 468.369" stroke="#073A53" stroke-width="2" stroke-linecap="round" stroke-linejoin="round"/>
<path d="M778.029 156.043L875.067 266.471" stroke="#073A53" stroke-width="2" stroke-linecap="round" stroke-linejoin="round"/>
<path d="M588.826 66.5796L719.425 119.31" stroke="#073A53" stroke-width="2" stroke-linecap="round" stroke-linejoin="round"/>
<path d="M374.214 78.0648L514.329 59.7437" stroke="#073A53" stroke-width="2" stroke-linecap="round" stroke-linejoin="round"/>
<path d="M519.565 68.5852L193.434 194.327" stroke="#073A53" stroke-width="2" stroke-linecap="round" stroke-linejoin="round"/>
<path d="M148.718 235.844L60.1497 591.238" stroke="#073A53" stroke-width="2" stroke-linecap="round" stroke-linejoin="round"/>
<path d="M58.5562 429.266L146.305 784.295" stroke="#073A53" stroke-width="2" stroke-linecap="round" stroke-linejoin="round"/>
<path d="M191.021 826.177L520.75 950.278" stroke="#073A53" stroke-width="2" stroke-linecap="round" stroke-linejoin="round"/>
<path d="M374.623 933.781L720.062 889.847" stroke="#073A53" stroke-width="2" stroke-linecap="round" stroke-linejoin="round"/>
<path d="M771.609 864.462L937.862 539.694" stroke="#073A53" stroke-width="2" stroke-linecap="round" stroke-linejoin="round"/>
<path d="M903.666 693.6L902.436 337.796" stroke="#073A53" stroke-width="2" stroke-linecap="round" stroke-linejoin="round"/>
<path d="M867.828 271.713L577.943 73.0518" stroke="#073A53" stroke-width="2" stroke-linecap="round" stroke-linejoin="round"/>
<path d="M718.468 129.837L372.849 89.1147" stroke="#073A53" stroke-width="2" stroke-linecap="round" stroke-linejoin="round"/>
<path d="M192.86 202.553L718.468 140.32" stroke="#073A53" stroke-width="2" stroke-linecap="round" stroke-linejoin="round"/>
<path d="M192.415 211.425L860.587 293.452" stroke="#073A53" stroke-width="2" stroke-linecap="round" stroke-linejoin="round"/>
<path d="M189.879 218.298L918.554 496.944" stroke="#073A53" stroke-width="2" stroke-linecap="round" stroke-linejoin="round"/>
<path d="M182.088 223.365L876.662 706.499" stroke="#073A53" stroke-width="2" stroke-linecap="round" stroke-linejoin="round"/>
<path d="M176.469 226.815L739.779 868.517" stroke="#073A53" stroke-width="2" stroke-linecap="round" stroke-linejoin="round"/>
<path d="M169.806 230.913L540.102 938.202" stroke="#073A53" stroke-width="2" stroke-linecap="round" stroke-linejoin="round"/>
<path d="M163.244 234.614L327.084 909.58" stroke="#073A53" stroke-width="2" stroke-linecap="round" stroke-linejoin="round"/>
<path d="M156.51 238.514L153.954 783.884" stroke="#073A53" stroke-width="2" stroke-linecap="round" stroke-linejoin="round"/>
<path d="M317.687 104.882L76.2695 376.49" stroke="#073A53" stroke-width="2" stroke-linecap="round" stroke-linejoin="round"/>
<path d="M323.609 108.272L66.9797 595.295" stroke="#073A53" stroke-width="2" stroke-linecap="round" stroke-linejoin="round"/>
<path d="M329.497 111.744L160.831 787.895" stroke="#073A53" stroke-width="2" stroke-linecap="round" stroke-linejoin="round"/>
<path d="M335.599 115.335L336.374 903.6" stroke="#073A53" stroke-width="2" stroke-linecap="round" stroke-linejoin="round"/>
<path d="M343.357 111.07L546.523 934.601" stroke="#073A53" stroke-width="2" stroke-linecap="round" stroke-linejoin="round"/>
<path d="M350.034 107.688L746.245 863.641" stroke="#073A53" stroke-width="2" stroke-linecap="round" stroke-linejoin="round"/>
<path d="M356.91 103.677L883.947 703.262" stroke="#073A53" stroke-width="2" stroke-linecap="round" stroke-linejoin="round"/>
<path d="M363.74 99.6221L919.602 487.921" stroke="#073A53" stroke-width="2" stroke-linecap="round" stroke-linejoin="round"/>
<path d="M372.438 94.1714L859.631 283.38" stroke="#073A53" stroke-width="2" stroke-linecap="round" stroke-linejoin="round"/>
<path d="M527.626 73.8259L76.6794 385.331" stroke="#073A53" stroke-width="2" stroke-linecap="round" stroke-linejoin="round"/>
<path d="M533.136 76.6421L73.446 597.71" stroke="#073A53" stroke-width="2" stroke-linecap="round" stroke-linejoin="round"/>
<path d="M539.118 79.8525L167.661 791.951" stroke="#073A53" stroke-width="2" stroke-linecap="round" stroke-linejoin="round"/>
<path d="M545.704 84.7192L343.613 908.806" stroke="#073A53" stroke-width="2" stroke-linecap="round" stroke-linejoin="round"/>
<path d="M552.717 87.7649L552.443 931.092" stroke="#073A53" stroke-width="2" stroke-linecap="round" stroke-linejoin="round"/>
<path d="M77.0435 391.802L723.705 146.791" stroke="#073A53" stroke-width="2" stroke-linecap="round" stroke-linejoin="round"/>
<path d="M76.0254 397.628L860.587 303.935" stroke="#073A53" stroke-width="2" stroke-linecap="round" stroke-linejoin="round"/>
<path d="M77.4531 403.06L918.554 506.652" stroke="#073A53" stroke-width="2" stroke-linecap="round" stroke-linejoin="round"/>
<path d="M76.6794 410.306L872.654 710.919" stroke="#073A53" stroke-width="2" stroke-linecap="round" stroke-linejoin="round"/>
<path d="M77.0435 418.373L732.949 871.707" stroke="#073A53" stroke-width="2" stroke-linecap="round" stroke-linejoin="round"/>
<path d="M533.636 942.258L72.2168 422.02" stroke="#073A53" stroke-width="2" stroke-linecap="round" stroke-linejoin="round"/>
<path d="M64.9761 425.254L320.253 913.226" stroke="#073A53" stroke-width="2" stroke-linecap="round" stroke-linejoin="round"/>
<path d="M71.8528 650.487L313.013 916.873" stroke="#073A53" stroke-width="2" stroke-linecap="round" stroke-linejoin="round"/>
<path d="M78.6829 602.132L729.716 151.623" stroke="#073A53" stroke-width="2" stroke-linecap="round" stroke-linejoin="round"/>
<path d="M79.0923 608.193L859.494 313.004" stroke="#073A53" stroke-width="2" stroke-linecap="round" stroke-linejoin="round"/>
<path d="M79.5024 616.259L918.965 514.672" stroke="#073A53" stroke-width="2" stroke-linecap="round" stroke-linejoin="round"/>
<path d="M79.0923 623.507L871.47 717.802" stroke="#073A53" stroke-width="2" stroke-linecap="round" stroke-linejoin="round"/>
<path d="M79.8672 631.573L726.893 875.764" stroke="#073A53" stroke-width="2" stroke-linecap="round" stroke-linejoin="round"/>
<path d="M79.8672 640.415L527.216 946.679" stroke="#073A53" stroke-width="2" stroke-linecap="round" stroke-linejoin="round"/>
<path d="M872.245 741.956L581.951 947.499" stroke="#073A53" stroke-width="2" stroke-linecap="round" stroke-linejoin="round"/>
<path d="M872.654 733.114L372.984 925.304" stroke="#073A53" stroke-width="2" stroke-linecap="round" stroke-linejoin="round"/>
<path d="M191.021 818.111L719.652 881.005" stroke="#073A53" stroke-width="2" stroke-linecap="round" stroke-linejoin="round"/>
<path d="M190.611 809.27L871.834 726.232" stroke="#073A53" stroke-width="2" stroke-linecap="round" stroke-linejoin="round"/>
<path d="M930.212 534.862L574.3 943.032" stroke="#073A53" stroke-width="2" stroke-linecap="round" stroke-linejoin="round"/>
<path d="M923.382 531.217L365.744 921.703" stroke="#073A53" stroke-width="2" stroke-linecap="round" stroke-linejoin="round"/>
<path d="M919.374 523.15L185.374 802.024" stroke="#073A53" stroke-width="2" stroke-linecap="round" stroke-linejoin="round"/>
<path d="M890.778 335.792L765.143 860.451" stroke="#073A53" stroke-width="2" stroke-linecap="round" stroke-linejoin="round"/>
<path d="M881.898 330.14L567.879 940.206" stroke="#073A53" stroke-width="2" stroke-linecap="round" stroke-linejoin="round"/>
<path d="M873.883 326.084L358.503 916.052" stroke="#073A53" stroke-width="2" stroke-linecap="round" stroke-linejoin="round"/>
<path d="M865.823 321.253L179.728 798.378" stroke="#073A53" stroke-width="2" stroke-linecap="round" stroke-linejoin="round"/>
<path d="M558.59 934.966L750.662 163.7" stroke="#073A53" stroke-width="2" stroke-linecap="round" stroke-linejoin="round"/>
<path d="M757.219 166.981L757.903 859.63" stroke="#073A53" stroke-width="2" stroke-linecap="round" stroke-linejoin="round"/>
<path d="M763.14 161.695L897.608 696.426" stroke="#073A53" stroke-width="2" stroke-linecap="round" stroke-linejoin="round"/>
<path d="M769.605 158.869L938.682 474.385" stroke="#073A53" stroke-width="2" stroke-linecap="round" stroke-linejoin="round"/>
<path d="M571.067 77.8821L930.212 480.036" stroke="#073A53" stroke-width="2" stroke-linecap="round" stroke-linejoin="round"/>
<path d="M745.426 158.459L350.034 912.041" stroke="#073A53" stroke-width="2" stroke-linecap="round" stroke-linejoin="round"/>
<path d="M736.182 155.633L173.717 794.777" stroke="#073A53" stroke-width="2" stroke-linecap="round" stroke-linejoin="round"/>
<path d="M559.133 84.0134L752.256 861.636" stroke="#073A53" stroke-width="2" stroke-linecap="round" stroke-linejoin="round"/>
<path d="M564.512 80.8574L890.368 700.482" stroke="#073A53" stroke-width="2" stroke-linecap="round" stroke-linejoin="round"/>
<path d="M300.081 926.397C299.771 926.576 299.581 926.906 299.581 927.263V969.739C299.581 970.096 299.771 970.426 300.081 970.605L336.828 991.842C337.138 992.021 337.52 992.021 337.829 991.842L374.577 970.605C374.886 970.426 375.077 970.096 375.077 969.739V927.263C375.077 926.906 374.886 926.576 374.577 926.397L337.829 905.159C337.52 904.98 337.138 904.98 336.828 905.159L300.081 926.397Z" stroke="#073A53" stroke-width="2" stroke-linecap="round" stroke-linejoin="round"/>
<path d="M515.65 953.105C515.341 953.283 515.15 953.613 515.15 953.97V996.446C515.15 996.803 515.341 997.133 515.65 997.312L552.398 1018.55C552.707 1018.73 553.089 1018.73 553.399 1018.55L590.146 997.312C590.456 997.133 590.646 996.803 590.646 996.446V953.97C590.646 953.613 590.456 953.283 590.146 953.105L553.399 931.867C553.089 931.688 552.707 931.688 552.398 931.867L515.65 953.105Z" stroke="#073A53" stroke-width="2" stroke-linecap="round" stroke-linejoin="round"/>
<path d="M720.518 879.684C720.208 879.862 720.018 880.192 720.018 880.549V923.025C720.018 923.383 720.208 923.713 720.518 923.891L757.265 945.129C757.575 945.308 757.957 945.308 758.266 945.129L795.014 923.891C795.323 923.713 795.514 923.383 795.514 923.025V880.549C795.514 880.192 795.323 879.862 795.014 879.684L758.266 858.446C757.957 858.267 757.575 858.267 757.265 858.446L720.518 879.684Z" stroke="#073A53" stroke-width="2" stroke-linecap="round" stroke-linejoin="round"/>
<path d="M873.155 710.099C872.846 710.278 872.655 710.608 872.655 710.965V753.441C872.655 753.798 872.846 754.128 873.155 754.307L909.903 775.545C910.212 775.724 910.594 775.724 910.903 775.545L947.651 754.307C947.96 754.128 948.151 753.798 948.151 753.441V710.965C948.151 710.608 947.96 710.278 947.651 710.099L910.903 688.861C910.594 688.682 910.212 688.682 909.903 688.861L873.155 710.099Z" stroke="#073A53" stroke-width="2" stroke-linecap="round" stroke-linejoin="round"/>
<path d="M114.748 803.938C114.439 804.117 114.249 804.447 114.249 804.804V847.28C114.249 847.637 114.439 847.967 114.748 848.146L151.496 869.384C151.806 869.562 152.187 869.562 152.497 869.384L189.245 848.146C189.554 847.967 189.744 847.637 189.744 847.28V804.804C189.744 804.447 189.554 804.117 189.245 803.938L152.497 782.7C152.187 782.521 151.806 782.521 151.496 782.7L114.748 803.938Z" stroke="#073A53" stroke-width="2" stroke-linecap="round" stroke-linejoin="round"/>
<path d="M4.00377 601.63C3.69458 601.809 3.50415 602.139 3.50415 602.496V644.972C3.50415 645.329 3.69458 645.659 4.00377 645.838L40.7516 667.076C41.061 667.255 41.4424 667.255 41.7519 667.076L78.5452 645.838C78.8547 645.66 79.0453 645.329 79.0453 644.972V602.496C79.0453 602.139 78.8547 601.809 78.5452 601.63L41.7519 580.392C41.4424 580.214 41.061 580.214 40.7516 580.392L4.00377 601.63Z" stroke="#073A53" stroke-width="2" stroke-linecap="round" stroke-linejoin="round"/>
<path d="M1.49962 374.12C1.19043 374.299 1 374.629 1 374.986V417.462C1 417.819 1.19043 418.149 1.49962 418.328L38.2474 439.566C38.557 439.745 38.9386 439.745 39.2482 439.566L75.996 418.328C76.3052 418.149 76.4956 417.819 76.4956 417.462V374.986C76.4956 374.629 76.3052 374.299 75.996 374.12L39.2482 352.882C38.9386 352.703 38.557 352.703 38.2474 352.882L1.49962 374.12Z" stroke="#073A53" stroke-width="2" stroke-linecap="round" stroke-linejoin="round"/>
<path d="M919.967 484.958C919.658 485.136 919.467 485.466 919.467 485.823V528.299C919.467 528.656 919.658 528.986 919.967 529.165L956.715 550.403C957.024 550.582 957.406 550.582 957.715 550.403L994.463 529.165C994.772 528.986 994.963 528.656 994.963 528.299V485.823C994.963 485.466 994.772 485.136 994.463 484.958L957.715 463.72C957.406 463.541 957.024 463.541 956.715 463.72L919.967 484.958Z" stroke="#073A53" stroke-width="2" stroke-linecap="round" stroke-linejoin="round"/>
<path d="M861.271 275.04C860.962 275.219 860.771 275.549 860.771 275.906V318.382C860.771 318.739 860.962 319.069 861.271 319.248L898.019 340.486C898.328 340.665 898.71 340.665 899.019 340.486L935.767 319.248C936.076 319.069 936.267 318.739 936.267 318.382V275.906C936.267 275.549 936.076 275.219 935.767 275.04L899.019 253.802C898.71 253.623 898.328 253.623 898.019 253.802L861.271 275.04Z" stroke="#073A53" stroke-width="2" stroke-linecap="round" stroke-linejoin="round"/>
<path d="M514.83 22.3721C514.521 22.5508 514.331 22.8808 514.331 23.2379V65.7139C514.331 66.071 514.521 66.401 514.83 66.5797L551.578 87.8176C551.888 87.9965 552.269 87.9965 552.579 87.8176L589.327 66.5797C589.636 66.401 589.826 66.071 589.826 65.7139V23.2379C589.826 22.8808 589.636 22.5508 589.327 22.3721L552.579 1.13419C552.269 0.955268 551.888 0.955268 551.578 1.13419L514.83 22.3721Z" stroke="#073A53" stroke-width="2" stroke-linecap="round" stroke-linejoin="round"/>
<path d="M719.516 100.442C719.207 100.621 719.017 100.951 719.017 101.308V143.784C719.017 144.141 719.207 144.471 719.516 144.65L756.264 165.888C756.574 166.067 756.955 166.067 757.265 165.888L794.013 144.65C794.322 144.471 794.512 144.141 794.512 143.784V101.308C794.512 100.951 794.322 100.621 794.013 100.442L757.265 79.2043C756.955 79.0253 756.574 79.0253 756.264 79.2043L719.516 100.442Z" stroke="#073A53" stroke-width="2" stroke-linecap="round" stroke-linejoin="round"/>
<path d="M118.073 173.499C117.763 173.677 117.573 174.008 117.573 174.365V216.841C117.573 217.198 117.763 217.528 118.073 217.707L154.866 238.945C155.176 239.123 155.557 239.123 155.866 238.945L192.614 217.707C192.923 217.528 193.114 217.198 193.114 216.841V174.365C193.114 174.008 192.923 173.678 192.614 173.499L155.866 152.261C155.557 152.082 155.176 152.082 154.866 152.261L118.073 173.499Z" stroke="#073A53" stroke-width="2" stroke-linecap="round" stroke-linejoin="round"/>
<path d="M298.442 50.0819C298.132 50.2606 297.942 50.5906 297.942 50.9477V93.4236C297.942 93.7807 298.132 94.1107 298.442 94.2894L335.189 115.527C335.499 115.706 335.88 115.706 336.19 115.527L372.938 94.2894C373.247 94.1107 373.438 93.7807 373.438 93.4236V50.9477C373.438 50.5906 373.247 50.2606 372.938 50.0819L336.19 28.8439C335.88 28.665 335.499 28.665 335.189 28.8439L298.442 50.0819Z" stroke="#073A53" stroke-width="2" stroke-linecap="round" stroke-linejoin="round"/>
<path d="M303.443 53.46V90.674L335.645 109.283L367.843 90.674V53.46L335.645 34.8552L303.443 53.46Z" fill="url(#paint0_linear_419_64)"/>
<path d="M303.443 53.4512L335.645 72.056L367.843 53.4512L335.645 34.842L303.443 53.4512Z" fill="url(#paint1_linear_419_64)"/>
<path opacity="0.44" d="M367.843 53.46L335.645 72.0691V109.283L367.843 90.6739V53.46Z" fill="url(#paint2_linear_419_64)"/>
<path opacity="0.44" d="M303.355 90.6741L335.557 109.283L367.76 90.6741L335.557 72.0693L303.355 90.6741Z" fill="url(#paint3_linear_419_64)"/>
<path d="M519.653 25.8746V63.0903L551.85 81.6959L584.051 63.0903V25.8746L551.85 7.26904L519.653 25.8746Z" fill="url(#paint4_linear_419_64)"/>
<path d="M519.653 25.8659L551.85 44.4715L584.051 25.8659L551.85 7.25586L519.653 25.8659Z" fill="url(#paint5_linear_419_64)"/>
<path opacity="0.44" d="M584.051 25.8745L551.85 44.4845V81.6958L584.051 63.0902V25.8745Z" fill="url(#paint6_linear_419_64)"/>
<path opacity="0.44" d="M519.565 63.0903L551.767 81.6959L583.963 63.0903L551.767 44.4846L519.565 63.0903Z" fill="url(#paint7_linear_419_64)"/>
<defs>
<linearGradient id="paint0_linear_419_64" x1="335.645" y1="109.283" x2="335.645" y2="34.8552" gradientUnits="userSpaceOnUse">
<stop offset="0.06" stop-color="#0E7BF8"/>
<stop offset="0.28" stop-color="#08A8D3"/>
<stop offset="0.54" stop-color="#02D8AC"/>
<stop offset="0.67" stop-color="#00EB9E"/>
</linearGradient>
<linearGradient id="paint1_linear_419_64" x1="303.443" y1="53.4512" x2="367.843" y2="53.4512" gradientUnits="userSpaceOnUse">
<stop offset="0.06" stop-color="#0E7BF8"/>
<stop offset="0.28" stop-color="#08A8D3"/>
<stop offset="0.54" stop-color="#02D8AC"/>
<stop offset="0.67" stop-color="#00EB9E"/>
</linearGradient>
<linearGradient id="paint2_linear_419_64" x1="367.843" y1="81.3737" x2="335.64" y2="81.3737" gradientUnits="userSpaceOnUse">
<stop offset="0.11" stop-color="#009EE7" stop-opacity="0.1"/>
<stop offset="0.89" stop-color="#00FFC3"/>
</linearGradient>
<linearGradient id="paint3_linear_419_64" x1="319.456" y1="106.789" x2="351.685" y2="74.5864" gradientUnits="userSpaceOnUse">
<stop offset="0.11" stop-color="#00FFC3"/>
<stop offset="0.89" stop-color="#009EE7" stop-opacity="0.1"/>
</linearGradient>
<linearGradient id="paint4_linear_419_64" x1="551.854" y1="81.7003" x2="551.854" y2="7.26904" gradientUnits="userSpaceOnUse">
<stop stop-color="#E01633"/>
<stop offset="0.02" stop-color="#E2232E"/>
<stop offset="0.09" stop-color="#E84A20"/>
<stop offset="0.17" stop-color="#ED6B14"/>
<stop offset="0.24" stop-color="#F1840B"/>
<stop offset="0.32" stop-color="#F39605"/>
<stop offset="0.4" stop-color="#F5A101"/>
<stop offset="0.5" stop-color="#F6A500"/>
<stop offset="0.55" stop-color="#F0A604"/>
<stop offset="0.61" stop-color="#E1AB12"/>
<stop offset="0.68" stop-color="#C7B42A"/>
<stop offset="0.75" stop-color="#A3C04A"/>
<stop offset="0.83" stop-color="#75CF74"/>
<stop offset="0.91" stop-color="#3EE1A6"/>
<stop offset="0.99" stop-color="#00F6DF"/>
</linearGradient>
<linearGradient id="paint5_linear_419_64" x1="519.653" y1="25.8659" x2="584.051" y2="25.8659" gradientUnits="userSpaceOnUse">
<stop stop-color="#E10035"/>
<stop offset="0.21" stop-color="#DF3E31"/>
<stop offset="1" stop-color="#FFC300"/>
</linearGradient>
<linearGradient id="paint6_linear_419_64" x1="551.85" y1="81.6958" x2="584.095" y2="25.9" gradientUnits="userSpaceOnUse">
<stop offset="0.11" stop-color="#FCEA0D"/>
<stop offset="0.89" stop-color="#FCEA0D" stop-opacity="0.1"/>
</linearGradient>
<linearGradient id="paint7_linear_419_64" x1="535.666" y1="79.2055" x2="567.896" y2="47.0044" gradientUnits="userSpaceOnUse">
<stop offset="0.11" stop-color="#E95A0C"/>
<stop offset="0.89" stop-color="#FCEA0D" stop-opacity="0.1"/>
</linearGradient>
</defs>
</svg>
