<svg width="889" height="841" viewBox="0 0 889 841" fill="none" xmlns="http://www.w3.org/2000/svg">
<g style="mix-blend-mode:color-burn" opacity="0.1">
<path d="M371.792 43.1344V125.438L442.999 166.607L514.205 125.438V43.1344L442.999 2L371.792 43.1344Z" stroke="#073A53" stroke-width="4" stroke-linecap="round" stroke-linejoin="round"/>
<path d="M514.205 126.163L783.478 272.849" stroke="#073A53" stroke-width="4" stroke-linecap="round" stroke-linejoin="round"/>
<path d="M165.776 239.777V284.509L127.096 306.858L88.4162 284.509V239.777L127.096 217.428L165.776 239.777Z" stroke="#073A53" stroke-width="4" stroke-linecap="round" stroke-linejoin="round"/>
<path d="M371.757 125.369L164.082 238.532" stroke="#073A53" stroke-width="4" stroke-linecap="round" stroke-linejoin="round"/>
<path d="M88.6234 284.579L28.1667 317.548" stroke="#073A53" stroke-width="4" stroke-linecap="round" stroke-linejoin="round"/>
<path d="M306.807 396.01V427.285L279.776 442.888L252.745 427.285V396.01L279.776 380.408L306.807 396.01Z" stroke="#073A53" stroke-width="4" stroke-linecap="round" stroke-linejoin="round"/>
<path d="M201.863 396.01V427.285L174.798 442.888L147.767 427.285V396.01L174.798 380.408L201.863 396.01Z" stroke="#073A53" stroke-width="4" stroke-linecap="round" stroke-linejoin="round"/>
<path d="M200.031 366.327L175.109 380.338" stroke="#073A53" stroke-width="4" stroke-linecap="round" stroke-linejoin="round"/>
<path d="M255.372 366.569L280.294 380.615" stroke="#073A53" stroke-width="4" stroke-linecap="round" stroke-linejoin="round"/>
<path d="M174.521 508.413C186.854 508.413 196.851 500.483 196.851 490.7C196.851 480.917 186.854 472.987 174.521 472.987C162.189 472.987 152.191 480.917 152.191 490.7C152.191 500.483 162.189 508.413 174.521 508.413Z" stroke="#073A53" stroke-width="4" stroke-linecap="round" stroke-linejoin="round"/>
<path d="M174.521 442.991V471.671" stroke="#073A53" stroke-width="4" stroke-linecap="round" stroke-linejoin="round"/>
<path d="M278.808 508.413C291.141 508.413 301.138 500.483 301.138 490.7C301.138 480.917 291.141 472.987 278.808 472.987C266.476 472.987 256.478 480.917 256.478 490.7C256.478 500.483 266.476 508.413 278.808 508.413Z" stroke="#073A53" stroke-width="4" stroke-linecap="round" stroke-linejoin="round"/>
<path d="M278.808 442.991V471.671" stroke="#073A53" stroke-width="4" stroke-linecap="round" stroke-linejoin="round"/>
<path d="M56.0965 332.492V363.767L29.0309 379.37L2 363.767V332.492L29.0309 316.89L56.0965 332.492Z" stroke="#073A53" stroke-width="4" stroke-linecap="round" stroke-linejoin="round"/>
<path d="M28.7545 444.895C41.087 444.895 51.0844 436.964 51.0844 427.182C51.0844 417.399 41.087 409.469 28.7545 409.469C16.4221 409.469 6.42462 417.399 6.42462 427.182C6.42462 436.964 16.4221 444.895 28.7545 444.895Z" stroke="#073A53" stroke-width="4" stroke-linecap="round" stroke-linejoin="round"/>
<path d="M28.7544 379.473V408.153" stroke="#073A53" stroke-width="4" stroke-linecap="round" stroke-linejoin="round"/>
<path d="M166.467 284.579L226.958 317.548" stroke="#073A53" stroke-width="4" stroke-linecap="round" stroke-linejoin="round"/>
<path d="M403.005 144.119L379.776 231.231" stroke="#073A53" stroke-width="4" stroke-linecap="round" stroke-linejoin="round"/>
<path d="M417.385 255.38V300.078L378.705 322.427L340.025 300.078V255.38L378.705 233.031L417.385 255.38Z" stroke="#073A53" stroke-width="4" stroke-linecap="round" stroke-linejoin="round"/>
<path d="M481.644 146.195L632.181 280.184" stroke="#073A53" stroke-width="4" stroke-linecap="round" stroke-linejoin="round"/>
<path d="M255.337 333.74V365.014L228.307 380.617L201.241 365.014V333.74L228.307 318.103L255.337 333.74Z" stroke="#073A53" stroke-width="4" stroke-linecap="round" stroke-linejoin="round"/>
<path d="M670.273 302.153V346.85L631.593 369.199L592.913 346.85V302.153L631.593 279.804L670.273 302.153Z" stroke="#073A53" stroke-width="4" stroke-linecap="round" stroke-linejoin="round"/>
<path d="M815.141 302.153V346.85L776.461 369.199L737.781 346.85V302.153L776.461 279.804L815.141 302.153Z" stroke="#073A53" stroke-width="4" stroke-linecap="round" stroke-linejoin="round"/>
<path d="M321.325 460.221V491.461L348.356 507.099L375.421 491.461V460.221L348.356 444.584L321.325 460.221Z" stroke="#073A53" stroke-width="4" stroke-linecap="round" stroke-linejoin="round"/>
<path d="M458.974 158.812L501.168 280.945" stroke="#073A53" stroke-width="4" stroke-linecap="round" stroke-linejoin="round"/>
<path d="M538.056 302.153V346.85L499.376 369.199L460.696 346.85V302.153L499.376 279.804L538.056 302.153Z" stroke="#073A53" stroke-width="4" stroke-linecap="round" stroke-linejoin="round"/>
<path d="M461.042 348.856L400.585 381.791" stroke="#073A53" stroke-width="4" stroke-linecap="round" stroke-linejoin="round"/>
<path d="M538.886 348.856L599.377 381.791" stroke="#073A53" stroke-width="4" stroke-linecap="round" stroke-linejoin="round"/>
<path d="M426.959 397.982V429.257L399.929 444.859L372.898 429.257V397.982L399.929 382.379L426.959 397.982Z" stroke="#073A53" stroke-width="4" stroke-linecap="round" stroke-linejoin="round"/>
<path d="M627.756 397.982V429.257L600.725 444.859L573.659 429.257V397.982L600.725 382.379L627.756 397.982Z" stroke="#073A53" stroke-width="4" stroke-linecap="round" stroke-linejoin="round"/>
<path d="M526.546 399.193V430.433L499.515 446.07L472.449 430.433V399.193L499.515 383.556L526.546 399.193Z" stroke="#073A53" stroke-width="4" stroke-linecap="round" stroke-linejoin="round"/>
<path d="M499.376 369.198V383.556" stroke="#073A53" stroke-width="4" stroke-linecap="round" stroke-linejoin="round"/>
<path d="M372.759 430.779L347.837 444.825" stroke="#073A53" stroke-width="4" stroke-linecap="round" stroke-linejoin="round"/>
<path d="M349.358 572.589C361.691 572.589 371.688 564.658 371.688 554.876C371.688 545.093 361.691 537.163 349.358 537.163C337.026 537.163 327.028 545.093 327.028 554.876C327.028 564.658 337.026 572.589 349.358 572.589Z" stroke="#073A53" stroke-width="4" stroke-linecap="round" stroke-linejoin="round"/>
<path d="M349.358 507.203V535.883" stroke="#073A53" stroke-width="4" stroke-linecap="round" stroke-linejoin="round"/>
<path d="M467.264 493.814V525.054L440.233 540.691L413.168 525.054V493.814L440.233 478.176L467.264 493.814Z" stroke="#073A53" stroke-width="4" stroke-linecap="round" stroke-linejoin="round"/>
<path d="M501.347 444.999L440.855 477.968" stroke="#073A53" stroke-width="4" stroke-linecap="round" stroke-linejoin="round"/>
<path d="M500.137 444.999L560.628 477.968" stroke="#073A53" stroke-width="4" stroke-linecap="round" stroke-linejoin="round"/>
<path d="M439.127 607.356C451.46 607.356 461.457 599.425 461.457 589.643C461.457 579.86 451.46 571.93 439.127 571.93C426.795 571.93 416.797 579.86 416.797 589.643C416.797 599.425 426.795 607.356 439.127 607.356Z" stroke="#073A53" stroke-width="4" stroke-linecap="round" stroke-linejoin="round"/>
<path d="M439.127 541.936V570.65" stroke="#073A53" stroke-width="4" stroke-linecap="round" stroke-linejoin="round"/>
<path d="M534.669 493.814V525.054L561.7 540.691L588.765 525.054V493.814L561.7 478.176L534.669 493.814Z" stroke="#073A53" stroke-width="4" stroke-linecap="round" stroke-linejoin="round"/>
<path d="M561.7 607.356C574.032 607.356 584.03 599.426 584.03 589.643C584.03 579.861 574.032 571.93 561.7 571.93C549.367 571.93 539.37 579.861 539.37 589.643C539.37 599.426 549.367 607.356 561.7 607.356Z" stroke="#073A53" stroke-width="4" stroke-linecap="round" stroke-linejoin="round"/>
<path d="M561.7 541.936V570.651" stroke="#073A53" stroke-width="4" stroke-linecap="round" stroke-linejoin="round"/>
<path d="M796.579 435.831V480.529L757.899 502.877L719.219 480.529V435.831L757.899 413.482L796.579 435.831Z" stroke="#073A53" stroke-width="4" stroke-linecap="round" stroke-linejoin="round"/>
<path d="M720.636 482.95L633.978 530.139" stroke="#073A53" stroke-width="4" stroke-linecap="round" stroke-linejoin="round"/>
<path d="M725.614 484.923V528.929" stroke="#073A53" stroke-width="4" stroke-linecap="round" stroke-linejoin="round"/>
<path d="M659.488 352.975L760.56 414.797" stroke="#073A53" stroke-width="4" stroke-linecap="round" stroke-linejoin="round"/>
<path d="M806.327 663.402V694.642L779.296 710.28L752.231 694.642V663.402L779.296 647.765L806.327 663.402Z" stroke="#073A53" stroke-width="4" stroke-linecap="round" stroke-linejoin="round"/>
<path d="M779.158 492.119V645.69" stroke="#073A53" stroke-width="4" stroke-linecap="round" stroke-linejoin="round"/>
<path d="M858.798 725.646V756.886L831.767 772.523L804.736 756.886V725.646L831.767 710.008L858.798 725.646Z" stroke="#073A53" stroke-width="4" stroke-linecap="round" stroke-linejoin="round"/>
<path d="M753.855 725.646V756.886L726.789 772.523L699.758 756.886V725.646L726.789 710.008L753.855 725.646Z" stroke="#073A53" stroke-width="4" stroke-linecap="round" stroke-linejoin="round"/>
<path d="M752.023 695.928L727.1 709.974" stroke="#073A53" stroke-width="4" stroke-linecap="round" stroke-linejoin="round"/>
<path d="M807.363 696.205L832.286 710.25" stroke="#073A53" stroke-width="4" stroke-linecap="round" stroke-linejoin="round"/>
<path d="M726.513 838.012C738.845 838.012 748.843 830.082 748.843 820.299C748.843 810.516 738.845 802.586 726.513 802.586C714.18 802.586 704.183 810.516 704.183 820.299C704.183 830.082 714.18 838.012 726.513 838.012Z" stroke="#073A53" stroke-width="4" stroke-linecap="round" stroke-linejoin="round"/>
<path d="M726.513 772.626V801.306" stroke="#073A53" stroke-width="4" stroke-linecap="round" stroke-linejoin="round"/>
<path d="M830.8 838.012C843.132 838.012 853.13 830.082 853.13 820.299C853.13 810.516 843.132 802.586 830.8 802.586C818.467 802.586 808.47 810.516 808.47 820.299C808.47 830.082 818.467 838.012 830.8 838.012Z" stroke="#073A53" stroke-width="4" stroke-linecap="round" stroke-linejoin="round"/>
<path d="M830.8 772.626V801.306" stroke="#073A53" stroke-width="4" stroke-linecap="round" stroke-linejoin="round"/>
<path d="M608.019 545.361V576.601L635.049 592.239L662.08 576.601V545.361L635.049 529.724L608.019 545.361Z" stroke="#073A53" stroke-width="4" stroke-linecap="round" stroke-linejoin="round"/>
<path d="M635.049 657.902C647.382 657.902 657.379 649.971 657.379 640.189C657.379 630.406 647.382 622.476 635.049 622.476C622.717 622.476 612.72 630.406 612.72 640.189C612.72 649.971 622.717 657.902 635.049 657.902Z" stroke="#073A53" stroke-width="4" stroke-linecap="round" stroke-linejoin="round"/>
<path d="M635.049 592.481V621.196" stroke="#073A53" stroke-width="4" stroke-linecap="round" stroke-linejoin="round"/>
<path d="M698.341 544.359V575.599L725.372 591.236L752.403 575.599V544.359L725.372 528.722L698.341 544.359Z" stroke="#073A53" stroke-width="4" stroke-linecap="round" stroke-linejoin="round"/>
<path d="M725.371 657.902C737.704 657.902 747.701 649.971 747.701 640.189C747.701 630.406 737.704 622.476 725.371 622.476C713.039 622.476 703.042 630.406 703.042 640.189C703.042 649.971 713.039 657.902 725.371 657.902Z" stroke="#073A53" stroke-width="4" stroke-linecap="round" stroke-linejoin="round"/>
<path d="M725.372 592.481V621.196" stroke="#073A53" stroke-width="4" stroke-linecap="round" stroke-linejoin="round"/>
<path d="M832.043 545.361V576.601L859.074 592.239L886.105 576.601V545.361L859.074 529.724L832.043 545.361Z" stroke="#073A53" stroke-width="4" stroke-linecap="round" stroke-linejoin="round"/>
<path d="M862.289 531.524L786.485 487.726" stroke="#073A53" stroke-width="4" stroke-linecap="round" stroke-linejoin="round"/>
<path d="M859.075 657.902C871.407 657.902 881.405 649.971 881.405 640.189C881.405 630.406 871.407 622.476 859.075 622.476C846.742 622.476 836.745 630.406 836.745 640.189C836.745 649.971 846.742 657.902 859.075 657.902Z" stroke="#073A53" stroke-width="4" stroke-linecap="round" stroke-linejoin="round"/>
<path d="M859.074 592.481V621.196" stroke="#073A53" stroke-width="4" stroke-linecap="round" stroke-linejoin="round"/>
</g>
</svg>
