<svg width="723" height="426" viewBox="0 0 723 426" fill="none" xmlns="http://www.w3.org/2000/svg">
<path d="M292.597 40.7994C292.133 41.0674 291.847 41.5625 291.847 42.0982V120.328C291.847 120.863 292.133 121.358 292.596 121.626L360.278 160.757C360.743 161.026 361.315 161.026 361.78 160.757L429.462 121.626C429.926 121.358 430.211 120.863 430.211 120.328V42.0982C430.211 41.5625 429.925 41.0674 429.462 40.7994L361.779 1.70114C361.315 1.43295 360.743 1.43295 360.279 1.70114L292.597 40.7994Z" stroke="#073A53" stroke-width="3" stroke-linecap="round" stroke-linejoin="round"/>
<path d="M510.954 162.961C510.49 163.229 510.204 163.724 510.204 164.259V206.745C510.204 207.28 510.49 207.775 510.954 208.043L547.719 229.286C548.183 229.554 548.756 229.554 549.22 229.286L585.985 208.043C586.449 207.775 586.735 207.28 586.735 206.745V164.259C586.735 163.724 586.449 163.229 585.985 162.961L549.22 141.718C548.756 141.45 548.183 141.45 547.719 141.718L510.954 162.961Z" stroke="#073A53" stroke-width="3" stroke-linecap="round" stroke-linejoin="round"/>
<path d="M428.711 119.472L510.226 163.865" stroke="#073A53" stroke-width="3" stroke-linecap="round" stroke-linejoin="round"/>
<path d="M616.748 252.141C616.284 252.409 615.999 252.904 615.999 253.439V283.133C615.999 283.668 616.284 284.163 616.748 284.431L642.441 299.295C642.905 299.563 643.478 299.563 643.942 299.295L669.668 284.432C670.132 284.164 670.418 283.669 670.418 283.133V253.439C670.418 252.904 670.132 252.408 669.668 252.14L643.942 237.277C643.478 237.009 642.905 237.009 642.441 237.278L616.748 252.141Z" stroke="#073A53" stroke-width="3" stroke-linecap="round" stroke-linejoin="round"/>
<path d="M567.63 310.377C567.166 310.645 566.88 311.14 566.88 311.676V341.369C566.88 341.905 567.166 342.4 567.63 342.668L593.355 357.531C593.82 357.8 594.392 357.8 594.857 357.531L620.55 342.668C621.013 342.4 621.299 341.905 621.299 341.369V311.676C621.299 311.14 621.013 310.645 620.55 310.377L594.857 295.514C594.392 295.245 593.82 295.245 593.355 295.514L567.63 310.377Z" stroke="#073A53" stroke-width="3" stroke-linecap="round" stroke-linejoin="round"/>
<path d="M667.411 310.377C666.947 310.645 666.662 311.14 666.662 311.676V341.369C666.662 341.905 666.947 342.4 667.411 342.668L693.104 357.531C693.568 357.8 694.14 357.8 694.605 357.531L720.331 342.668C720.795 342.4 721.08 341.905 721.08 341.369V311.676C721.08 311.14 720.795 310.645 720.331 310.377L694.605 295.514C694.14 295.245 693.568 295.245 693.104 295.514L667.411 310.377Z" stroke="#073A53" stroke-width="3" stroke-linecap="round" stroke-linejoin="round"/>
<path d="M585.037 206.843L642.502 238.148" stroke="#073A53" stroke-width="3" stroke-linecap="round" stroke-linejoin="round"/>
<path d="M669.903 283.429L693.592 296.779" stroke="#073A53" stroke-width="3" stroke-linecap="round" stroke-linejoin="round"/>
<path d="M617.269 283.692L593.58 297.042" stroke="#073A53" stroke-width="3" stroke-linecap="round" stroke-linejoin="round"/>
<path d="M694.118 420.013C706.326 420.013 716.842 412.109 716.842 401.677C716.842 391.245 706.326 383.341 694.118 383.341C681.91 383.341 671.393 391.245 671.393 401.677C671.393 412.109 681.91 420.013 694.118 420.013Z" stroke="#073A53" stroke-width="3" stroke-linecap="round" stroke-linejoin="round"/>
<path d="M694.118 356.331V383.591" stroke="#073A53" stroke-width="3" stroke-linecap="round" stroke-linejoin="round"/>
<path d="M595.026 420.013C607.234 420.013 617.75 412.109 617.75 401.677C617.75 391.245 607.234 383.341 595.026 383.341C582.818 383.341 572.301 391.245 572.301 401.677C572.301 412.109 582.818 420.013 595.026 420.013Z" stroke="#073A53" stroke-width="3" stroke-linecap="round" stroke-linejoin="round"/>
<path d="M595.026 356.331V383.591" stroke="#073A53" stroke-width="3" stroke-linecap="round" stroke-linejoin="round"/>
<path d="M511.047 206.843L453.55 238.148" stroke="#073A53" stroke-width="3" stroke-linecap="round" stroke-linejoin="round"/>
<path d="M211.822 165.049C211.822 164.513 211.536 164.018 211.072 163.75L174.307 142.508C173.843 142.239 173.27 142.239 172.806 142.508L136.041 163.75C135.577 164.018 135.291 164.513 135.291 165.049V207.567C135.291 208.103 135.577 208.598 136.041 208.866L172.806 230.109C173.27 230.377 173.843 230.377 174.307 230.109L211.072 208.866C211.536 208.598 211.822 208.103 211.822 207.567V165.049Z" stroke="#073A53" stroke-width="3" stroke-linecap="round" stroke-linejoin="round"/>
<path d="M293.314 120.262L211.767 164.687" stroke="#073A53" stroke-width="3" stroke-linecap="round" stroke-linejoin="round"/>
<path d="M135.28 208.028L80.1118 238.096" stroke="#073A53" stroke-width="3" stroke-linecap="round" stroke-linejoin="round"/>
<path d="M107.337 254.752C107.337 254.216 107.052 253.721 106.588 253.453L80.8621 238.59C80.3975 238.321 79.825 238.321 79.3606 238.59L53.6677 253.453C53.2042 253.722 52.9188 254.216 52.9188 254.752V284.445C52.9188 284.981 53.2042 285.476 53.6677 285.744L79.3606 300.607C79.825 300.876 80.3975 300.876 80.8621 300.607L106.588 285.744C107.052 285.476 107.337 284.981 107.337 284.445V254.752Z" stroke="#073A53" stroke-width="3" stroke-linecap="round" stroke-linejoin="round"/>
<path d="M158.723 315.676C158.723 315.14 158.437 314.645 157.973 314.377L132.28 299.546C131.816 299.278 131.245 299.278 130.781 299.546L105.088 314.377C104.623 314.645 104.337 315.14 104.337 315.676V345.402C104.337 345.938 104.623 346.434 105.088 346.701L130.781 361.532C131.245 361.8 131.816 361.8 132.28 361.532L157.973 346.701C158.437 346.434 158.723 345.938 158.723 345.402V315.676Z" stroke="#073A53" stroke-width="3" stroke-linecap="round" stroke-linejoin="round"/>
<path d="M55.9187 315.257C55.9187 314.721 55.6324 314.226 55.1678 313.958L29.4421 299.127C28.9781 298.86 28.4068 298.86 27.943 299.128L2.25012 313.958C1.78594 314.226 1.49998 314.721 1.49998 315.257V344.984C1.49998 345.52 1.78594 346.015 2.25012 346.283L27.943 361.113C28.4068 361.381 28.9781 361.381 29.4421 361.114L55.1678 346.283C55.6324 346.016 55.9187 345.52 55.9187 344.984V315.257Z" stroke="#073A53" stroke-width="3" stroke-linecap="round" stroke-linejoin="round"/>
<path d="M51.6658 285.893L27.977 299.243" stroke="#073A53" stroke-width="3" stroke-linecap="round" stroke-linejoin="round"/>
<path d="M107.842 285.893L131.53 299.21" stroke="#073A53" stroke-width="3" stroke-linecap="round" stroke-linejoin="round"/>
<path d="M28.4302 423.595C40.638 423.595 51.1548 415.691 51.1548 405.259C51.1548 394.827 40.638 386.923 28.4302 386.923C16.2223 386.923 5.70559 394.827 5.70559 405.259C5.70559 415.691 16.2223 423.595 28.4302 423.595Z" stroke="#073A53" stroke-width="3" stroke-linecap="round" stroke-linejoin="round"/>
<path d="M28.4301 362.113L28.4301 386.058" stroke="#073A53" stroke-width="3" stroke-linecap="round" stroke-linejoin="round"/>
<path d="M130.61 424.014C142.818 424.014 153.335 416.11 153.335 405.678C153.335 395.245 142.818 387.341 130.61 387.341C118.402 387.341 107.886 395.245 107.886 405.678C107.886 416.11 118.402 424.014 130.61 424.014Z" stroke="#073A53" stroke-width="3" stroke-linecap="round" stroke-linejoin="round"/>
<path d="M131.53 361.548V387.524" stroke="#073A53" stroke-width="3" stroke-linecap="round" stroke-linejoin="round"/>
<path d="M294.039 254.752C294.039 254.216 293.753 253.721 293.289 253.453L267.563 238.59C267.099 238.321 266.526 238.321 266.062 238.59L240.369 253.453C239.905 253.722 239.62 254.216 239.62 254.752V284.445C239.62 284.981 239.905 285.476 240.369 285.744L266.062 300.607C266.526 300.876 267.099 300.876 267.563 300.607L293.289 285.744C293.753 285.476 294.039 284.981 294.039 284.445V254.752Z" stroke="#073A53" stroke-width="3" stroke-linecap="round" stroke-linejoin="round"/>
<path d="M345.424 315.676C345.424 315.14 345.139 314.645 344.674 314.377L318.981 299.546C318.517 299.278 317.946 299.278 317.482 299.546L291.789 314.377C291.325 314.645 291.039 315.14 291.039 315.676V345.402C291.039 345.938 291.325 346.434 291.789 346.701L317.482 361.532C317.946 361.8 318.517 361.8 318.981 361.532L344.674 346.701C345.139 346.434 345.424 345.938 345.424 345.402V315.676Z" stroke="#073A53" stroke-width="3" stroke-linecap="round" stroke-linejoin="round"/>
<path d="M242.62 315.257C242.62 314.721 242.334 314.226 241.869 313.958L216.143 299.127C215.679 298.86 215.108 298.86 214.644 299.128L188.951 313.958C188.487 314.226 188.201 314.721 188.201 315.257V344.984C188.201 345.52 188.487 346.015 188.951 346.283L214.644 361.113C215.108 361.381 215.679 361.381 216.143 361.114L241.869 346.283C242.334 346.016 242.62 345.52 242.62 344.984V315.257Z" stroke="#073A53" stroke-width="3" stroke-linecap="round" stroke-linejoin="round"/>
<path d="M238.367 285.893L214.678 299.243" stroke="#073A53" stroke-width="3" stroke-linecap="round" stroke-linejoin="round"/>
<path d="M294.543 285.893L318.232 299.21" stroke="#073A53" stroke-width="3" stroke-linecap="round" stroke-linejoin="round"/>
<path d="M215.131 423.595C227.339 423.595 237.856 415.691 237.856 405.259C237.856 394.827 227.339 386.923 215.131 386.923C202.924 386.923 192.407 394.827 192.407 405.259C192.407 415.691 202.924 423.595 215.131 423.595Z" stroke="#073A53" stroke-width="3" stroke-linecap="round" stroke-linejoin="round"/>
<path d="M215.131 362.113L215.131 386.058" stroke="#073A53" stroke-width="3" stroke-linecap="round" stroke-linejoin="round"/>
<path d="M317.312 424.014C329.519 424.014 340.036 416.11 340.036 405.678C340.036 395.245 329.519 387.341 317.312 387.341C305.104 387.341 294.587 395.245 294.587 405.678C294.587 416.11 305.104 424.014 317.312 424.014Z" stroke="#073A53" stroke-width="3" stroke-linecap="round" stroke-linejoin="round"/>
<path d="M318.232 361.548V387.524" stroke="#073A53" stroke-width="3" stroke-linecap="round" stroke-linejoin="round"/>
<path d="M210.979 207.633L268.443 238.97" stroke="#073A53" stroke-width="3" stroke-linecap="round" stroke-linejoin="round"/>
<path d="M141.4 166.707V203.921L173.603 222.531L205.801 203.921V166.707L173.603 148.103L141.4 166.707Z" fill="url(#paint0_linear_375_3)"/>
<path d="M141.4 166.699L173.603 185.303L205.801 166.699L173.603 148.089L141.4 166.699Z" fill="url(#paint1_linear_375_3)"/>
<path opacity="0.44" d="M205.8 166.707L173.602 185.317V222.531L205.8 203.921V166.707Z" fill="url(#paint2_linear_375_3)"/>
<path opacity="0.44" d="M141.312 203.921L173.515 222.531L205.717 203.921L173.515 185.317L141.312 203.921Z" fill="url(#paint3_linear_375_3)"/>
<path d="M298.032 44.7987V117.685L361.095 154.124L424.165 117.685V44.7987L361.095 8.35986L298.032 44.7987Z" fill="url(#paint4_linear_375_3)"/>
<path d="M298.032 44.7819L361.095 81.2208L424.165 44.7819L361.095 8.33435L298.032 44.7819Z" fill="url(#paint5_linear_375_3)"/>
<path opacity="0.44" d="M424.165 44.799L361.094 81.2465V154.124L424.165 117.685V44.799Z" fill="url(#paint6_linear_375_3)"/>
<path opacity="0.44" d="M297.861 117.685L360.932 154.124L423.994 117.685L360.932 81.2465L297.861 117.685Z" fill="url(#paint7_linear_375_3)"/>
<path d="M381.431 315.981L381.431 342.27L404.177 355.413L426.926 342.27L426.926 315.981L404.177 302.834L381.431 315.981Z" fill="url(#paint8_linear_375_3)"/>
<path d="M381.431 315.971L404.177 329.117L426.926 315.971L404.177 302.828L381.431 315.971Z" fill="url(#paint9_linear_375_3)"/>
<path opacity="0.44" d="M426.926 315.98L404.177 329.124L404.177 355.413L426.926 342.27L426.926 315.98Z" fill="url(#paint10_linear_375_3)"/>
<path opacity="0.44" d="M381.369 342.27L404.118 355.413L426.864 342.27L404.118 329.124L381.369 342.27Z" fill="url(#paint11_linear_375_3)"/>
<path d="M482.52 254.752C482.52 254.216 482.234 253.721 481.77 253.453L456.022 238.589C455.558 238.321 454.986 238.322 454.521 238.59L428.807 253.453C428.343 253.721 428.057 254.216 428.057 254.752V284.445C428.057 284.981 428.343 285.476 428.807 285.744L454.521 300.607C454.986 300.876 455.558 300.876 456.022 300.608L481.77 285.745C482.234 285.477 482.52 284.981 482.52 284.445V254.752Z" stroke="#073A53" stroke-width="3" stroke-linecap="round" stroke-linejoin="round"/>
<path d="M533.949 315.676C533.949 315.14 533.663 314.644 533.198 314.376L507.484 299.546C507.02 299.279 506.449 299.279 505.985 299.546L480.27 314.376C479.806 314.644 479.52 315.14 479.52 315.676V345.402C479.52 345.938 479.806 346.434 480.27 346.702L505.985 361.532C506.449 361.8 507.02 361.8 507.484 361.532L533.198 346.702C533.663 346.434 533.949 345.938 533.949 345.402V315.676Z" stroke="#073A53" stroke-width="3" stroke-linecap="round" stroke-linejoin="round"/>
<path d="M431.057 315.257C431.057 314.721 430.771 314.225 430.306 313.958L404.558 299.127C404.095 298.86 403.524 298.86 403.06 299.128L377.345 313.958C376.881 314.226 376.595 314.721 376.595 315.257V344.984C376.595 345.52 376.881 346.015 377.345 346.283L403.06 361.114C403.524 361.381 404.095 361.381 404.558 361.114L430.306 346.284C430.771 346.016 431.057 345.52 431.057 344.984V315.257Z" stroke="#073A53" stroke-width="3" stroke-linecap="round" stroke-linejoin="round"/>
<path d="M426.802 285.893L403.093 299.243" stroke="#073A53" stroke-width="3" stroke-linecap="round" stroke-linejoin="round"/>
<path d="M483.025 285.893L506.734 299.21" stroke="#073A53" stroke-width="3" stroke-linecap="round" stroke-linejoin="round"/>
<path d="M403.547 423.595C415.763 423.595 426.289 415.692 426.289 405.259C426.289 394.826 415.763 386.923 403.547 386.923C391.33 386.923 380.804 394.826 380.804 405.259C380.804 415.692 391.33 423.595 403.547 423.595Z" stroke="#073A53" stroke-width="3" stroke-linecap="round" stroke-linejoin="round"/>
<path d="M403.546 362.113L403.546 386.058" stroke="#073A53" stroke-width="3" stroke-linecap="round" stroke-linejoin="round"/>
<path d="M505.813 424.014C518.03 424.014 528.556 416.111 528.556 405.678C528.556 395.244 518.03 387.341 505.813 387.341C493.597 387.341 483.071 395.244 483.071 405.678C483.071 416.111 493.597 424.014 505.813 424.014Z" stroke="#073A53" stroke-width="3" stroke-linecap="round" stroke-linejoin="round"/>
<path d="M506.734 361.548V387.524" stroke="#073A53" stroke-width="3" stroke-linecap="round" stroke-linejoin="round"/>
<defs>
<linearGradient id="paint0_linear_375_3" x1="173.603" y1="222.531" x2="173.603" y2="148.103" gradientUnits="userSpaceOnUse">
<stop offset="0.06" stop-color="#0E7BF8"/>
<stop offset="0.28" stop-color="#08A8D3"/>
<stop offset="0.54" stop-color="#02D8AC"/>
<stop offset="0.67" stop-color="#00EB9E"/>
</linearGradient>
<linearGradient id="paint1_linear_375_3" x1="141.4" y1="166.699" x2="205.801" y2="166.699" gradientUnits="userSpaceOnUse">
<stop offset="0.06" stop-color="#0E7BF8"/>
<stop offset="0.28" stop-color="#08A8D3"/>
<stop offset="0.54" stop-color="#02D8AC"/>
<stop offset="0.67" stop-color="#00EB9E"/>
</linearGradient>
<linearGradient id="paint2_linear_375_3" x1="205.8" y1="194.621" x2="173.598" y2="194.621" gradientUnits="userSpaceOnUse">
<stop offset="0.11" stop-color="#009EE7" stop-opacity="0.1"/>
<stop offset="0.89" stop-color="#00FFC3"/>
</linearGradient>
<linearGradient id="paint3_linear_375_3" x1="157.414" y1="220.036" x2="189.643" y2="187.834" gradientUnits="userSpaceOnUse">
<stop offset="0.11" stop-color="#00FFC3"/>
<stop offset="0.89" stop-color="#009EE7" stop-opacity="0.1"/>
</linearGradient>
<linearGradient id="paint4_linear_375_3" x1="361.103" y1="154.133" x2="361.103" y2="8.35986" gradientUnits="userSpaceOnUse">
<stop stop-color="#E01633"/>
<stop offset="0.02" stop-color="#E2232E"/>
<stop offset="0.09" stop-color="#E84A20"/>
<stop offset="0.17" stop-color="#ED6B14"/>
<stop offset="0.24" stop-color="#F1840B"/>
<stop offset="0.32" stop-color="#F39605"/>
<stop offset="0.4" stop-color="#F5A101"/>
<stop offset="0.5" stop-color="#F6A500"/>
<stop offset="0.55" stop-color="#F0A604"/>
<stop offset="0.61" stop-color="#E1AB12"/>
<stop offset="0.68" stop-color="#C7B42A"/>
<stop offset="0.75" stop-color="#A3C04A"/>
<stop offset="0.83" stop-color="#75CF74"/>
<stop offset="0.91" stop-color="#3EE1A6"/>
<stop offset="0.99" stop-color="#00F6DF"/>
</linearGradient>
<linearGradient id="paint5_linear_375_3" x1="298.032" y1="44.7819" x2="424.165" y2="44.7819" gradientUnits="userSpaceOnUse">
<stop stop-color="#E10035"/>
<stop offset="0.21" stop-color="#DF3E31"/>
<stop offset="1" stop-color="#FFC300"/>
</linearGradient>
<linearGradient id="paint6_linear_375_3" x1="361.094" y1="154.124" x2="424.244" y2="44.8444" gradientUnits="userSpaceOnUse">
<stop offset="0.11" stop-color="#FCEA0D"/>
<stop offset="0.89" stop-color="#FCEA0D" stop-opacity="0.1"/>
</linearGradient>
<linearGradient id="paint7_linear_375_3" x1="329.396" y1="149.247" x2="392.519" y2="86.1763" gradientUnits="userSpaceOnUse">
<stop offset="0.11" stop-color="#E95A0C"/>
<stop offset="0.89" stop-color="#FCEA0D" stop-opacity="0.1"/>
</linearGradient>
<linearGradient id="paint8_linear_375_3" x1="404.18" y1="355.413" x2="404.18" y2="302.838" gradientUnits="userSpaceOnUse">
<stop offset="0.130208" stop-color="#0E7BF8"/>
<stop offset="0.286458" stop-color="#0E7BF8"/>
<stop offset="1" stop-color="#073A53"/>
</linearGradient>
<linearGradient id="paint9_linear_375_3" x1="381.428" y1="315.971" x2="426.926" y2="315.971" gradientUnits="userSpaceOnUse">
<stop offset="0.0625" stop-color="#0E7BF8"/>
<stop offset="1" stop-color="#08A8D3"/>
</linearGradient>
<linearGradient id="paint10_linear_375_3" x1="426.926" y1="335.697" x2="404.18" y2="335.697" gradientUnits="userSpaceOnUse">
<stop offset="0.11" stop-color="#009EE7" stop-opacity="0.1"/>
<stop offset="0.89" stop-color="#00FFC3"/>
</linearGradient>
<linearGradient id="paint11_linear_375_3" x1="392.744" y1="353.654" x2="415.509" y2="330.905" gradientUnits="userSpaceOnUse">
<stop offset="0.11" stop-color="#00FFC3"/>
<stop offset="0.89" stop-color="#009EE7" stop-opacity="0.1"/>
</linearGradient>
</defs>
</svg>
