<svg width="911" height="595" viewBox="0 0 911 595" fill="none" xmlns="http://www.w3.org/2000/svg">
<path d="M726.433 237.31L732.801 226.264L726.392 215.213L713.632 215.239L707.282 226.316M726.433 237.31L713.692 237.366M726.433 237.31L773.135 254.621M713.692 237.366L707.282 226.316M713.692 237.366L736.17 287.868M707.282 226.316L674.377 233.42M800.701 193.632L794.309 182.612L781.55 182.638L775.2 193.715M800.701 193.632L794.351 204.709L781.592 204.735M800.701 193.632L865.137 189.639M781.592 204.735L775.2 193.715M781.592 204.735C781.917 207.184 779.485 243.544 779.485 243.544M775.2 193.715L725.272 214.89M748.989 309.969L755.339 298.892L748.93 287.842L736.17 287.868M748.989 309.969L736.23 309.995M748.989 309.969L796.42 321.823M736.23 309.995L729.82 298.944M736.23 309.995L721.713 342.58M729.82 298.944L736.17 287.868M729.82 298.944L677.64 298.617M792.304 265.645L798.654 254.568L792.245 243.518L779.485 243.544M792.304 265.645L779.545 265.671M792.304 265.645L802.787 310.777M779.545 265.671L773.135 254.621M779.545 265.671C776.727 267.105 748.9 287.859 748.9 287.859M773.135 254.621L779.485 243.544M865.179 211.736L877.938 211.71L884.288 200.633L877.897 189.613L865.137 189.639M865.179 211.736L858.787 200.716L865.137 189.639M865.179 211.736L798.232 254.61M815.589 332.847L821.908 321.789L815.499 310.738L802.787 310.777M815.589 332.847L802.829 332.874M815.589 332.847L866.859 394.464M802.829 332.874L796.42 321.823M802.829 332.874L728.123 353.63M796.42 321.823L802.787 310.777M515.919 269.757L522.269 258.68L515.877 247.66L503.118 247.687L496.768 258.763L503.159 269.783M515.919 269.757L503.159 269.783M515.919 269.757L562.62 287.067M503.159 269.783L525.656 320.315M590.186 226.08L583.777 215.029L571.035 215.086L564.668 226.132M590.186 226.08L583.836 237.156L571.077 237.182M590.186 226.08L648.255 233.132M571.077 237.182L564.668 226.132M571.077 237.182C571.403 239.631 568.97 275.991 568.97 275.991M564.668 226.132L514.757 247.337M525.656 320.315L519.306 331.392L525.716 342.442L538.458 342.385L544.825 331.339L538.416 320.289L525.656 320.315ZM581.771 298.061L588.121 286.985L581.73 275.965L568.97 275.991M581.771 298.061L569.012 298.087M581.771 298.061L652.121 298.67M581.771 298.061L592.255 343.194M569.012 298.087L562.62 287.067M569.012 298.087C566.194 299.522 538.368 320.277 538.368 320.277M562.62 287.067L568.97 275.991M667.967 222.37L674.377 233.42M667.967 222.37L655.256 222.408L648.888 233.455L655.297 244.505L668.057 244.479M667.967 222.37L660.906 152.235M674.377 233.42L668.057 244.479M668.057 244.479L658.471 287.593M677.64 298.617L671.231 287.567L658.471 287.593M677.64 298.617L671.29 309.694M671.29 309.694L658.531 309.72M671.29 309.694L708.971 342.636M658.531 309.72L652.121 298.67M658.531 309.72L611.334 355.041M652.121 298.67L658.471 287.593M654.665 244.183L587.718 287.057M585.905 354.27L544.505 332.256M611.334 355.041L604.942 344.021L592.183 344.048L585.833 355.124L592.224 366.144M611.334 355.041L604.984 366.118M604.984 366.118L592.224 366.144M604.984 366.118L656.254 427.734M592.224 366.144L561.58 404.486M721.713 342.58L728.123 353.63M721.713 342.58L708.971 342.636M728.123 353.63L721.773 364.707M721.773 364.707L709.043 364.715L702.634 353.665L708.971 342.636M721.773 364.707L750.07 395.875M709.441 365.54L669.005 427.552M745.41 523.272L739.042 534.318L745.451 545.369L758.211 545.343L764.561 534.266M745.41 523.272L758.151 523.216M745.41 523.272L698.708 505.961M758.151 523.216L764.561 534.266M758.151 523.216L735.672 472.714M764.561 534.266L797.466 527.162M671.142 566.95L677.552 578L690.293 577.943L696.661 566.897M671.142 566.95L677.492 555.873L690.251 555.847M671.142 566.95L606.706 570.943M690.251 555.847L696.661 566.897M690.251 555.847C689.926 553.398 692.358 517.038 692.358 517.038M696.661 566.897L746.572 545.692M722.943 472.723L716.534 461.672L722.871 450.644M722.943 472.723L735.672 472.714M722.943 472.723C722.943 472.723 695.117 493.476 692.299 494.911M722.871 450.644L735.613 450.587M722.871 450.644L675.423 438.758M735.613 450.587L742.022 461.637M735.613 450.587L750.13 418.002M742.022 461.637L735.672 472.714M742.022 461.637L794.203 461.965M679.557 494.967L673.189 506.013L679.599 517.064L692.358 517.038M679.557 494.967L692.299 494.911M679.557 494.967L669.073 449.835M692.299 494.911L698.708 505.961M698.708 505.961L692.358 517.038M593.905 548.872L587.555 559.949L593.946 570.969L606.706 570.943M593.905 548.872L606.664 548.846M593.905 548.872L598.354 491.939M606.664 548.846L613.056 559.866L606.706 570.943M606.664 548.846L673.61 505.971M649.935 438.793L656.344 449.843L669.073 449.835M649.935 438.793L656.254 427.734M649.935 438.793L567.99 415.536M656.254 427.734L669.014 427.708L675.423 438.758M675.423 438.758L669.073 449.835M890.071 462.521L883.721 473.597L890.113 484.617L902.872 484.591L909.222 473.515L902.83 462.495L890.071 462.521ZM890.071 462.521L819.722 461.913M890.071 462.521L879.588 417.388M797.466 527.162L803.876 538.212L816.618 538.156L822.955 527.127L816.545 516.077L803.816 516.085M797.466 527.162L803.816 516.085M803.816 516.085L813.372 472.989M794.203 461.965L800.613 473.015L813.372 472.989M794.203 461.965L800.571 450.919M800.571 450.919L813.312 450.862M800.571 450.919L762.872 417.946M813.312 450.862L819.722 461.913M813.312 450.862L860.509 405.541M819.722 461.913L813.372 472.989M817.179 516.399L884.143 473.555M860.509 405.541L866.901 416.561L879.661 416.535L886.011 405.458L879.619 394.438L866.859 394.464M860.509 405.541L866.859 394.464M866.859 394.464L769.209 406.917M750.13 418.002L743.72 406.952L750.07 395.875M750.13 418.002L762.872 417.946M750.07 395.875L762.799 395.867L769.209 406.917M769.209 406.917L762.872 417.946M548.839 404.543L542.471 415.589L548.88 426.639L561.64 426.613L567.99 415.536M548.839 404.543L561.58 404.486M548.839 404.543L501.486 360.66M561.58 404.486L567.99 415.536M598.354 491.939L591.962 480.919L598.312 469.842M598.354 491.939L611.114 491.912L617.464 480.836L611.072 469.816M598.312 469.842L611.072 469.816M598.312 469.842L523.775 444.675M611.072 469.816L655.775 449.282M571.769 56.728L578.119 45.6514L571.709 34.6011L558.95 34.6272L552.6 45.7038M571.769 56.728L559.009 56.7541M571.769 56.728L618.453 74.0087M559.009 56.7541L552.6 45.7038M559.009 56.7541L581.506 107.286M552.6 45.7038L519.725 52.7903M646.019 13.02L639.627 2L626.868 2.02617L620.518 13.1027M646.019 13.02L639.669 24.0965L626.909 24.1227M646.019 13.02L710.455 9.02714M626.909 24.1227L620.518 13.1027M626.909 24.1227C627.235 26.5718 624.803 62.9322 624.803 62.9322M620.518 13.1027L570.589 34.2778M594.307 129.356L600.657 118.28L594.248 107.229L581.506 107.286M594.307 129.356L581.548 129.382M594.307 129.356L641.755 141.241M581.548 129.382L575.138 118.332M581.548 129.382L567.048 161.998M575.138 118.332L581.506 107.286M575.138 118.332L522.958 118.005M637.622 85.0329L643.972 73.9564L637.562 62.906L624.803 62.9322M637.622 85.0329L624.862 85.0591M637.622 85.0329L648.105 130.165M624.862 85.0591L618.453 74.0087M624.862 85.0591C622.044 86.4934 594.218 107.247 594.218 107.247M618.453 74.0087L624.803 62.9322M723.256 31.0975L729.624 20.0513L723.215 9.00098L710.455 9.02714M723.256 31.0975L710.515 31.154M723.256 31.0975L660.865 130.139M710.515 31.154L704.105 20.1037L710.455 9.02714M710.515 31.154L643.55 73.998M660.865 130.139L667.256 141.159L660.906 152.235M660.865 130.139L648.105 130.165M660.906 152.235L648.147 152.261M648.147 152.261L641.755 141.241M648.147 152.261L573.44 173.018M641.755 141.241L648.105 130.165M361.237 89.1444L367.605 78.0982L361.196 67.0479L348.436 67.074M361.237 89.1444L348.496 89.2009M361.237 89.1444L407.939 106.455M348.496 89.2009L342.086 78.1506M348.496 89.2009L370.975 139.703M342.086 78.1506L348.436 67.074M342.086 78.1506L289.674 102.595M348.436 67.074L300.473 34.5849M435.505 45.4673L429.113 34.4473L416.354 34.4734L410.004 45.55M435.505 45.4673L429.155 56.5438L416.396 56.57M435.505 45.4673L493.591 52.5507M416.396 56.57L410.004 45.55M416.396 56.57C416.721 59.0191 414.289 95.3782 414.289 95.3782M410.004 45.55L360.075 66.7243M364.625 150.779L371.034 161.83L383.794 161.803L390.143 150.727L383.734 139.677L370.975 139.703M364.625 150.779L370.975 139.703M364.625 150.779L339.148 167.895M364.625 150.779L296.066 113.615M427.09 117.449L433.458 106.402L427.048 95.3521L414.289 95.3782M427.09 117.449L414.348 117.505M427.09 117.449L497.439 118.057M427.09 117.449L437.573 162.582M414.348 117.505L407.939 106.455M414.348 117.505C411.53 118.939 383.703 139.693 383.703 139.693M407.939 106.455L414.289 95.3782M519.725 52.7903L513.333 41.7703L500.573 41.7964L494.224 52.8729L500.615 63.8929L513.375 63.8668M519.725 52.7903L513.375 63.8668M513.375 63.8668L503.789 106.981M522.958 118.005L516.549 106.955L503.789 106.981M522.958 118.005L516.608 129.081M516.608 129.081L503.849 129.108M516.608 129.081L554.319 162.006M503.849 129.108L497.439 118.057M503.849 129.108L456.67 174.46M497.439 118.057L503.789 106.981M499.982 63.5703L433.035 106.445M431.224 173.658L389.824 151.643M456.67 174.46L450.261 163.409L437.501 163.435L431.151 174.512L437.561 185.562M456.67 174.46L450.302 185.506M450.302 185.506L437.561 185.562M450.302 185.506L501.621 247.135M437.561 185.562L406.917 223.904M567.048 161.998L573.44 173.018M567.048 161.998L554.319 162.006M573.44 173.018L567.121 184.077M567.121 184.077L554.361 184.103L547.969 173.083L554.319 162.006M567.121 184.077L571.446 214.886M554.758 184.927L514.323 246.939M394.157 223.93L387.807 235.006L394.199 246.026L406.959 246L413.309 234.924M394.157 223.93L406.917 223.904M394.157 223.93L346.354 179.619M406.917 223.904L413.309 234.924M413.309 234.924L495.253 258.182M518.219 330.846L494.425 348.486M161.577 357.194L155.228 368.27L161.637 379.321L174.396 379.295L180.746 368.218M161.577 357.194L174.337 357.168M161.577 357.194L114.893 339.913M174.337 357.168L180.746 368.218M174.337 357.168L151.889 306.649M180.746 368.218L213.652 361.114M106.437 389.799L93.6774 389.825L87.3274 400.902L93.7193 411.922L106.479 411.895M106.437 389.799L112.829 400.819M106.437 389.799C106.111 387.35 108.543 350.99 108.543 350.99M112.829 400.819L106.479 411.895M112.829 400.819L162.757 379.643M106.479 411.895L220.802 453.358M139.129 306.675L132.72 295.624L139.07 284.548M139.129 306.675L151.889 306.649M139.129 306.675C139.129 306.675 111.302 327.428 108.484 328.863M139.07 284.548L151.799 284.539M139.07 284.548L91.6216 272.663M151.799 284.539L158.208 295.59M151.799 284.539L166.298 251.924M158.208 295.59L151.889 306.649M158.208 295.59L210.388 295.917M95.7244 328.889L89.3745 339.965L95.7839 351.016L108.543 350.99M95.7244 328.889L108.484 328.863M95.7244 328.889L85.2716 283.739M108.484 328.863L114.893 339.913M114.893 339.913L108.543 350.99M72.4703 261.669L66.1203 272.746L72.5121 283.766L85.2716 283.739M72.4703 261.669L85.2297 261.643M72.4703 261.669L21.1689 200.07M85.2297 261.643L91.6216 272.663M85.2297 261.643L159.906 240.904M91.6216 272.663L85.2716 283.739M372.109 324.777L365.742 335.823L372.151 346.874L384.911 346.848L391.261 335.771L384.851 324.721M372.109 324.777L384.851 324.721M372.109 324.777L325.408 307.467M384.851 324.721L362.403 274.201M297.842 368.454L304.252 379.505L316.994 379.448L323.361 368.402M297.842 368.454L304.192 357.378L316.952 357.352M297.842 368.454L239.756 361.371M316.952 357.352L323.361 368.402M316.952 357.352C316.626 354.902 319.058 318.543 319.058 318.543M323.361 368.402L373.272 347.197M349.643 274.227L343.234 263.177L349.602 252.131L362.313 252.092M349.643 274.227L362.403 274.201M349.643 274.227C349.643 274.227 321.817 294.982 318.999 296.416M362.313 252.092L368.723 263.142L362.403 274.201M362.313 252.092L387.043 234.599M306.257 296.473L299.889 307.519L306.299 318.569L319.058 318.543M306.257 296.473L318.999 296.416M306.257 296.473L235.907 295.864M306.257 296.473L295.804 251.323M318.999 296.416L325.408 307.467M325.408 307.467L319.058 318.543M220.044 372.134L213.652 361.114M220.044 372.134L232.803 372.108L239.153 361.031L232.761 350.011L220.002 350.037M220.044 372.134L227.152 442.281M213.652 361.114L220.002 350.037M220.002 350.037L229.557 306.941M210.388 295.917L216.798 306.967L229.557 306.941M210.388 295.917L216.738 284.84M216.738 284.84L229.498 284.814M216.738 284.84L179.057 251.898M229.498 284.814L235.907 295.864M229.498 284.814L276.695 239.492M235.907 295.864L229.557 306.941M233.364 350.35L300.311 307.476M302.123 240.264L343.523 262.278M276.695 239.492L283.086 250.512L295.846 250.486L302.196 239.41L295.804 228.39M276.695 239.492L283.044 228.416M283.044 228.416L295.804 228.39M283.044 228.416L231.773 166.799M295.804 228.39L326.448 190.048M166.298 251.924L159.906 240.904M166.298 251.924L179.057 251.898M159.906 240.904L166.256 229.827M166.256 229.827L179.016 229.801L185.407 240.821L179.057 251.898M166.256 229.827L137.988 198.641M178.588 228.994L219.054 166.964M165.157 143.89L171.507 132.813L165.115 121.793L152.356 121.819L146.006 132.896M165.157 143.89L152.397 143.916M165.157 143.89L212.604 155.775M152.397 143.916L146.006 132.896M152.397 143.916L137.928 176.514M146.006 132.896L93.8076 132.539M208.472 99.5662L214.822 88.4897L208.43 77.4697L195.67 77.4959L189.32 88.5724L195.712 99.5924M208.472 99.5662L195.712 99.5924M208.472 99.5662L218.954 144.699M195.712 99.5924C192.894 101.027 165.067 121.781 165.067 121.781M300.473 34.5849L294.064 23.5346L281.322 23.5911L274.954 34.6373L281.364 45.6877M300.473 34.5849L294.123 45.6615M294.123 45.6615L281.364 45.6877M294.123 45.6615L289.674 102.595M281.364 45.6877L214.417 88.5623M238.123 155.723L231.714 144.672L218.954 144.699M238.123 155.723L231.773 166.799M238.123 155.723L320.038 178.997M231.773 166.799L219.014 166.825L212.604 155.775M212.604 155.775L218.954 144.699M93.8076 132.539L87.4158 121.519L74.6563 121.545L68.3063 132.621L74.6982 143.641M93.8076 132.539L87.4576 143.615M87.4576 143.615L74.6982 143.641M87.4576 143.615L125.169 176.54M74.6982 143.641L27.5189 188.993M27.5189 188.993L21.1094 177.943L8.36761 178L2 189.046L8.40945 200.096L21.1689 200.07M27.5189 188.993L21.1689 200.07M21.1689 200.07L118.819 187.616M137.928 176.514L144.338 187.564L137.988 198.641M137.928 176.514L125.169 176.54M137.988 198.641L125.228 198.667L118.819 187.616M118.819 187.616L125.169 176.54M339.148 167.895L345.557 178.945L339.19 189.991L326.448 190.048M339.148 167.895L326.388 167.921M326.448 190.048L320.038 178.997M320.038 178.997L326.388 167.921M326.388 167.921L289.716 124.692M289.674 102.595L296.066 113.615M289.674 102.595L276.915 102.622L270.565 113.698L276.957 124.718M296.066 113.615L289.716 124.692M289.716 124.692L276.957 124.718M276.957 124.718L232.253 145.252M316.259 537.806L309.909 548.883L316.318 559.933L329.06 559.877L335.428 548.83M316.259 537.806L329.018 537.78M316.259 537.806L269.575 520.526M329.018 537.78L335.428 548.83M329.018 537.78L306.552 487.23M335.428 548.83L368.333 541.726M241.992 581.484L248.401 592.534L261.16 592.508L267.51 581.431M241.992 581.484L248.359 570.438L261.101 570.381M241.992 581.484L177.572 585.507M261.101 570.381L267.51 581.431M261.101 570.381C260.775 567.932 263.207 531.572 263.207 531.572M267.51 581.431L317.438 560.256M293.81 487.287L287.401 476.236L293.751 465.16M293.81 487.287L306.552 487.23M293.81 487.287C293.81 487.287 265.983 508.041 263.165 509.476M293.751 465.16L306.48 465.151M293.751 465.16L246.273 453.293M306.48 465.151L312.889 476.201M306.48 465.151L320.979 432.536M312.889 476.201L306.552 487.23M312.889 476.201L365.07 476.529M250.406 509.502L244.056 520.578L250.465 531.629L263.207 531.572M250.406 509.502L263.165 509.476M250.406 509.502L239.953 464.352M263.165 509.476L269.575 520.526M269.575 520.526L263.207 531.572M164.754 563.406L158.404 574.483L164.813 585.533L177.572 585.507M164.754 563.406L177.513 563.38M164.754 563.406L227.194 464.378M177.513 563.38L183.922 574.43L177.572 585.507M177.513 563.38L244.478 520.536M227.194 464.378L220.802 453.358M227.194 464.378L239.953 464.352M220.802 453.358L227.152 442.281M227.152 442.281L239.881 442.273M239.881 442.273L246.273 453.293M239.881 442.273L314.587 421.516M246.273 453.293L239.953 464.352M526.773 505.359L520.424 516.436L526.833 527.486L539.592 527.46L545.942 516.383L539.533 505.333L526.773 505.359ZM526.773 505.359L480.089 488.079M452.523 549.067L458.915 560.087L471.675 560.061L478.025 548.984M452.523 549.067L458.873 537.99L471.633 537.964M452.523 549.067L394.437 541.983M471.633 537.964L478.025 548.984M471.633 537.964C471.307 535.515 473.739 499.155 473.739 499.155M478.025 548.984L527.953 527.809M504.325 454.84L497.915 443.79L504.235 432.731L516.995 432.705M504.325 454.84L517.054 454.831M504.325 454.84C504.325 454.84 476.498 475.594 473.68 477.028M516.995 432.705L523.404 443.755L517.054 454.831M516.995 432.705L543.41 414.271M517.054 454.831L539.585 504.653M460.92 477.055L454.57 488.131L460.98 499.181L473.739 499.155M460.92 477.055L473.68 477.028M460.92 477.055L390.589 476.477M460.92 477.055L450.468 431.905M473.68 477.028L480.089 488.079M480.089 488.079L473.739 499.155M368.333 541.726L374.725 552.746L387.484 552.72L393.834 541.643L387.442 530.623L374.683 530.649M368.333 541.726L374.683 530.649M374.683 530.649L384.221 487.523M365.07 476.529L371.479 487.58L384.221 487.523M365.07 476.529L371.42 465.453M371.42 465.453L384.179 465.426M371.42 465.453L333.738 432.51M384.179 465.426L390.589 476.477M384.179 465.426L431.358 420.075M390.589 476.477L384.221 487.523M388.045 530.963L454.992 488.089M456.805 420.876L498.205 442.891M431.358 420.075L437.768 431.125L450.527 431.099L456.877 420.022L450.468 408.972M431.358 420.075L437.726 409.029M437.726 409.029L450.468 408.972M437.726 409.029L386.437 347.381M450.468 408.972L481.112 370.63M320.979 432.536L314.587 421.516M320.979 432.536L333.738 432.51M314.587 421.516L320.937 410.44M320.937 410.44L333.697 410.414L340.088 421.434L333.738 432.51M320.937 410.44L316.564 379.617M333.269 409.607L373.735 347.577M481.112 370.63L493.871 370.603L500.221 359.527L493.829 348.507L481.07 348.533M481.112 370.63L474.72 359.61M474.72 359.61L481.07 348.533M474.72 359.61L392.805 336.335M481.07 348.533L394.703 247.805" stroke="#073A53" stroke-width="3" stroke-linecap="round" stroke-linejoin="round"/>
</svg>
